<svg width="930" height="770" viewBox="0 0 930 770" fill="none" xmlns="http://www.w3.org/2000/svg">
<path opacity="0.5" fill-rule="evenodd" clip-rule="evenodd" d="M588.878 53.7008C670.571 65.8063 741.731 104.527 794.885 159.733C806.532 148.64 822.989 142.833 840.131 145.38C869.67 149.753 890.059 177.238 885.685 206.756C883.03 224.683 871.847 239.235 856.867 246.925C889.303 310.926 902.927 385.243 891.601 461.613C882.323 524.181 857.402 580.564 821.412 627.416C845.148 643.823 858.865 672.785 854.347 703.252C848.01 745.974 808.223 775.478 765.482 769.144C738.684 765.171 717.095 748.065 706.269 725.323C640.476 760.734 563.107 775.999 483.498 764.208C299.722 736.979 169.213 575.157 177.199 393.617C119.785 365.055 84.5796 301.938 94.4925 235.098C106.817 151.986 184.215 94.5969 267.364 106.916C285.584 109.613 302.569 115.441 317.856 123.766C392.32 66.8264 488.829 38.8775 588.878 53.7008ZM868.35 70.9923C860.406 69.8153 853.006 75.3009 851.828 83.2405C850.651 91.18 856.139 98.5774 864.082 99.7544C872.025 100.931 879.426 95.4458 880.603 87.5063C881.781 79.5667 876.293 72.1693 868.35 70.9923ZM176.914 575.784C159.65 573.223 143.578 585.143 141.016 602.399C138.454 619.655 150.38 635.72 167.643 638.281C184.907 640.841 200.979 628.922 203.541 611.666C206.103 594.41 194.177 578.338 176.914 575.784ZM798.168 68.1603C782.781 65.8776 768.451 76.4994 766.174 91.8862C763.89 107.266 774.517 121.59 789.911 123.866C805.297 126.148 819.628 115.527 821.904 100.14C824.188 84.7599 813.561 70.443 798.168 68.1603ZM326.848 0.499471C301.92 -3.19566 278.718 14.0103 275.029 38.9203C271.332 63.8375 288.546 87.0283 313.467 90.7163C338.395 94.4115 361.596 77.2056 365.286 52.2955C368.99 27.3855 351.776 4.1946 326.848 0.499471ZM89.7537 420.118C48.4039 413.99 9.91587 442.531 3.78547 483.855C-2.34493 525.187 26.2089 563.657 67.5516 569.785C108.901 575.913 147.389 547.372 153.513 506.048C159.657 464.716 131.104 426.246 89.7537 420.118Z" fill="#EBF5FF"/>
<path fill-rule="evenodd" clip-rule="evenodd" d="M768.724 494.149C767.704 492.359 766.49 490.682 765.113 489.156L768.81 483.834C769.095 483.42 769.017 482.857 768.624 482.543L763.886 478.691C763.493 478.377 762.929 478.413 762.587 478.776L758.098 483.477C756.328 482.45 754.444 481.608 752.496 480.981L753.038 474.518C753.081 474.018 752.731 473.569 752.231 473.491L746.201 472.528C745.709 472.449 745.23 472.763 745.116 473.248L743.582 479.554C741.534 479.547 739.485 479.761 737.48 480.189L734.718 474.325C734.504 473.869 733.976 473.655 733.505 473.84L727.803 476.016C727.332 476.194 727.082 476.701 727.225 477.186L729.052 483.42C727.275 484.44 725.605 485.646 724.077 487.016L718.753 483.32C718.339 483.035 717.776 483.114 717.462 483.506L713.608 488.243C713.294 488.635 713.329 489.198 713.693 489.541L718.397 494.028C717.369 495.797 716.534 497.68 715.899 499.628L709.433 499.085C708.933 499.043 708.484 499.392 708.405 499.891L707.442 505.919C707.363 506.411 707.677 506.889 708.163 507.003L714.471 508.537C714.464 510.584 714.678 512.632 715.106 514.636L709.24 517.397C708.783 517.611 708.569 518.139 708.755 518.61L710.932 524.309C711.11 524.78 711.617 525.03 712.102 524.887L718.339 523.061C719.353 524.83 720.552 526.492 721.915 528.012L718.232 533.355C717.947 533.768 718.033 534.332 718.418 534.646L723.157 538.498C723.549 538.812 724.113 538.776 724.463 538.412L728.923 533.697C730.693 534.724 732.57 535.566 734.518 536.201L734.004 542.678C733.962 543.177 734.311 543.62 734.811 543.705L740.841 544.668C741.334 544.747 741.812 544.433 741.926 543.941L743.432 537.635C745.48 537.642 747.528 537.428 749.534 537L752.324 542.863C752.538 543.32 753.066 543.527 753.537 543.348L759.24 541.173C759.711 540.994 759.961 540.481 759.818 540.003L757.962 533.79C759.746 532.77 761.409 531.571 762.936 530.201L768.282 533.882C768.696 534.168 769.26 534.082 769.574 533.697L773.427 528.96C773.748 528.568 773.706 528.004 773.342 527.655L768.624 523.196C769.652 521.427 770.494 519.551 771.129 517.604L777.609 518.117C778.109 518.16 778.551 517.811 778.637 517.311L779.601 511.284C779.679 510.791 779.365 510.313 778.873 510.199L772.564 508.694C772.571 506.647 772.357 504.6 771.929 502.595L777.795 499.806C778.252 499.592 778.459 499.064 778.28 498.593L776.104 492.894C775.925 492.423 775.411 492.173 774.933 492.316L768.724 494.149ZM731.407 506.647C732.477 499.963 738.772 495.412 745.459 496.482C752.146 497.552 756.699 503.843 755.628 510.527C754.558 517.211 748.263 521.763 741.576 520.693C734.889 519.615 730.336 513.331 731.407 506.647Z" fill="#B7D9F9"/>
<path d="M492.749 586.057C734.235 586.057 929.998 581.218 929.998 575.249C929.998 569.281 734.235 564.442 492.749 564.442C251.263 564.442 55.5 569.281 55.5 575.249C55.5 581.218 251.263 586.057 492.749 586.057Z" fill="#B7D9F9"/>
<path fill-rule="evenodd" clip-rule="evenodd" d="M107.364 573.338C107.364 573.338 108.57 558.578 102.625 547.636C104.081 553.271 104.809 566.825 102.661 573.53C103.788 573.58 105.009 573.609 106.286 573.609L107.364 573.338Z" fill="#007229"/>
<path fill-rule="evenodd" clip-rule="evenodd" d="M104.723 573.594C104.702 569.778 105.209 559.142 111.103 550.339C109.376 555.746 108.356 566.868 110.597 573.523C109.334 573.58 107.942 573.616 106.479 573.616C105.879 573.609 105.294 573.602 104.723 573.594Z" fill="#00AE42"/>
<path fill-rule="evenodd" clip-rule="evenodd" d="M106.008 573.609C106.201 570.577 107.656 560.754 118.055 549.947C118.055 549.947 110.59 565.762 110.375 573.523C109.169 573.573 107.856 573.602 106.479 573.602C106.322 573.609 106.165 573.609 106.008 573.609Z" fill="#00C54C"/>
<path fill-rule="evenodd" clip-rule="evenodd" d="M109.19 573.573C108.848 569.593 106.521 555.397 90.8203 545.317C93.9533 547.493 102.425 564.585 102.532 573.53C103.752 573.587 105.079 573.616 106.478 573.616C107.413 573.609 108.327 573.594 109.19 573.573Z" fill="#00DB56"/>
<path fill-rule="evenodd" clip-rule="evenodd" d="M711.579 573.338C711.579 573.338 710.394 558.778 716.253 547.978C714.812 553.542 714.098 566.91 716.218 573.53C715.104 573.58 713.905 573.602 712.642 573.609L711.579 573.338Z" fill="#007229"/>
<path fill-rule="evenodd" clip-rule="evenodd" d="M714.193 573.594C714.214 569.828 713.715 559.335 707.898 550.646C709.597 555.982 710.61 566.953 708.405 573.523C709.654 573.58 711.024 573.616 712.466 573.616C713.051 573.609 713.629 573.602 714.193 573.594Z" fill="#00AE42"/>
<path fill-rule="evenodd" clip-rule="evenodd" d="M712.921 573.609C712.728 570.62 711.294 560.925 701.031 550.261C701.031 550.261 708.396 565.862 708.61 573.53C709.802 573.58 711.094 573.609 712.457 573.609C712.614 573.609 712.764 573.609 712.921 573.609Z" fill="#00C54C"/>
<path fill-rule="evenodd" clip-rule="evenodd" d="M709.773 573.573C710.116 569.65 712.407 555.64 727.9 545.688C724.81 547.836 716.453 564.699 716.346 573.53C715.14 573.58 713.827 573.616 712.45 573.616C711.529 573.609 710.63 573.594 709.773 573.573Z" fill="#00DB56"/>
<path fill-rule="evenodd" clip-rule="evenodd" d="M696.143 573.159C696.143 573.159 694.801 549.077 701.417 531.222C699.797 540.424 698.983 562.53 701.374 573.48C700.118 573.559 698.762 573.602 697.342 573.609L696.143 573.159Z" fill="#007229"/>
<path fill-rule="evenodd" clip-rule="evenodd" d="M699.081 573.587C699.11 567.353 698.539 549.997 691.98 535.637C693.9 544.461 695.035 562.609 692.551 573.466C693.957 573.559 695.506 573.616 697.126 573.616C697.79 573.609 698.446 573.602 699.081 573.587Z" fill="#00AE42"/>
<path fill-rule="evenodd" clip-rule="evenodd" d="M697.649 573.609C697.435 568.665 695.815 552.629 684.246 535.002C684.246 535.002 692.553 560.804 692.789 573.48C694.13 573.566 695.593 573.616 697.121 573.616C697.299 573.609 697.477 573.609 697.649 573.609Z" fill="#00C54C"/>
<path fill-rule="evenodd" clip-rule="evenodd" d="M694.098 573.544C694.483 567.053 697.066 543.884 714.537 527.434C711.054 530.979 701.627 558.871 701.513 573.473C700.157 573.559 698.672 573.609 697.124 573.609C696.075 573.609 695.068 573.587 694.098 573.544Z" fill="#00DB56"/>
<path fill-rule="evenodd" clip-rule="evenodd" d="M636.23 543.57C643.232 543.57 649.733 545.731 655.093 549.419C655.814 549.911 656.063 550.839 655.699 551.63L653.444 556.517L656.634 552.865C656.963 552.486 657.391 552.28 657.89 552.258C658.39 552.237 658.832 552.401 659.196 552.743C664.834 558.108 668.588 565.419 669.387 573.602H603.066C603.388 570.285 604.201 567.11 605.429 564.15C605.793 563.265 606.899 562.637 607.705 563.165L611.588 565.712L608.105 562.088C607.47 561.425 607.17 560.533 607.641 559.748C609.111 557.302 610.888 555.062 612.915 553.071C613.286 552.708 613.736 552.536 614.257 552.565C614.771 552.594 615.242 552.786 615.534 553.207L620.865 560.918L616.697 551.766C616.326 550.946 616.526 549.997 617.261 549.483C622.649 545.76 629.187 543.57 636.23 543.57Z" fill="#9564F2"/>
<path fill-rule="evenodd" clip-rule="evenodd" d="M653.444 556.524L655.128 554.591L655.435 554.27C655.784 553.906 656.191 553.685 656.691 553.663C657.19 553.642 657.633 553.806 657.997 554.149C663.499 559.385 666.325 565.705 667.203 573.609H603.059C603.38 570.292 604.193 567.117 605.421 564.157C605.785 563.272 606.891 562.645 607.697 563.172L611.58 565.719L608.097 562.095C607.462 561.432 607.162 560.54 607.633 559.755C609.103 557.309 610.88 555.069 612.907 553.079C613.278 552.715 613.728 552.543 614.249 552.572C614.763 552.601 615.234 552.793 615.526 553.214L620.857 560.925L616.69 551.773C616.319 550.953 616.518 550.004 617.253 549.49C617.946 549.012 618.659 548.556 619.387 548.128C630.884 543.769 643.816 543.256 653.508 550.874C654.193 551.416 654.457 552.28 654.114 553.086L651.638 558.914L653.444 556.524Z" fill="#7433EE"/>
<path fill-rule="evenodd" clip-rule="evenodd" d="M650.7 560.94C650.778 560.811 650.935 560.776 651.064 560.847C651.192 560.925 651.228 561.082 651.156 561.211L643.706 573.609H643.128C643.128 573.559 643.142 573.516 643.163 573.473L650.7 560.94ZM658.529 565.598L650.942 573.43C650.892 573.48 650.864 573.552 650.864 573.616H651.499L658.907 565.969C659.007 565.862 659.007 565.698 658.9 565.591C658.8 565.491 658.636 565.491 658.529 565.598ZM638.896 549.761C638.91 549.612 639.038 549.505 639.181 549.519C639.331 549.533 639.438 549.662 639.424 549.804L637.44 573.609H636.904L638.896 549.761ZM615.659 565.947C615.566 565.833 615.58 565.669 615.694 565.576C615.808 565.484 615.973 565.498 616.065 565.612L622.667 573.609H621.974L615.659 565.947ZM626.842 553.956C626.813 553.813 626.906 553.671 627.049 553.642C627.191 553.614 627.334 553.706 627.363 553.849L631.423 573.559C631.423 573.573 631.431 573.594 631.431 573.609H630.895L626.842 553.956Z" fill="#360E94"/>
<path fill-rule="evenodd" clip-rule="evenodd" d="M682.721 558.108C687.296 558.678 691.513 560.405 695.082 562.973C695.767 563.465 696.009 564.35 695.667 565.127L694.132 568.63L696.109 566.261C696.445 565.862 696.887 565.641 697.415 565.619C697.936 565.598 698.4 565.783 698.764 566.161C700.848 568.323 702.568 570.841 703.831 573.602H654.859C655.837 571.469 657.086 569.478 658.563 567.688C659.156 566.968 660.205 566.825 660.968 567.367L663.266 569.001L661.853 566.097C661.489 565.348 661.682 564.471 662.331 563.943C666.257 560.74 671.102 558.621 676.412 558.044C676.94 557.986 677.418 558.143 677.804 558.5C678.196 558.857 678.389 559.32 678.382 559.848L678.289 564.178L680.922 559.049C681.265 558.386 681.964 558.015 682.721 558.108Z" fill="#B695F7"/>
<path fill-rule="evenodd" clip-rule="evenodd" d="M694.132 568.63L695.966 566.425C696.073 566.404 696.18 566.39 696.287 566.39C696.808 566.368 697.272 566.554 697.636 566.932C699.52 568.894 701.111 571.148 702.339 573.609H654.852C655.829 571.476 657.078 569.486 658.555 567.695C659.148 566.975 660.197 566.832 660.961 567.374L663.259 569.008L661.845 566.104C661.481 565.355 661.674 564.478 662.324 563.95C662.738 563.608 663.166 563.28 663.601 562.966C667.034 560.74 671.009 559.278 675.284 558.814C675.812 558.757 676.29 558.914 676.676 559.27C677.068 559.627 677.261 560.091 677.253 560.619L677.175 566.875L678.281 564.185L680.915 559.057C680.943 558.999 680.979 558.942 681.015 558.885C681.2 558.85 681.4 558.843 681.607 558.864C686.182 559.435 690.399 561.161 693.968 563.729C694.653 564.221 694.874 565.099 694.553 565.883L692.811 570.163L694.132 568.63Z" fill="#9564F2"/>
<path fill-rule="evenodd" clip-rule="evenodd" d="M671.581 561.539C671.552 561.396 671.645 561.254 671.795 561.225C671.937 561.196 672.08 561.289 672.109 561.439L674.464 573.559C674.464 573.573 674.471 573.594 674.471 573.609H673.936L671.581 561.539ZM665.786 569.956C665.721 569.828 665.771 569.664 665.907 569.6C666.035 569.535 666.2 569.585 666.264 569.721L668.091 573.423C668.119 573.48 668.126 573.552 668.112 573.609H667.591L665.786 569.956ZM696.994 568.558C697.087 568.444 697.251 568.423 697.365 568.515C697.48 568.608 697.501 568.772 697.408 568.886L693.654 573.609H693.048C693.048 573.552 693.069 573.495 693.105 573.445L696.994 568.558ZM680.872 564.585C680.887 564.435 681.015 564.328 681.158 564.342C681.308 564.357 681.415 564.485 681.401 564.628L680.637 573.609H680.102V573.587L680.872 564.585ZM689.601 562.737C689.658 562.602 689.815 562.538 689.95 562.595C690.086 562.652 690.15 562.809 690.093 562.944L685.661 573.616H685.104C685.104 573.58 685.112 573.545 685.126 573.516L689.601 562.737Z" fill="#5416CF"/>
<path fill-rule="evenodd" clip-rule="evenodd" d="M137.177 552.144C130.84 552.936 124.995 555.318 120.063 558.885C119.114 559.57 118.779 560.797 119.25 561.867L121.369 566.718L118.636 563.436C118.172 562.88 117.558 562.58 116.831 562.552C116.103 562.523 115.467 562.78 114.968 563.308C112.085 566.304 109.701 569.785 107.945 573.616H175.772C174.416 570.655 172.682 567.909 170.641 565.427C169.82 564.428 168.371 564.235 167.315 564.984L164.132 567.246L166.088 563.222C166.594 562.181 166.323 560.968 165.431 560.24C159.993 555.803 153.285 552.872 145.934 552.073C145.206 551.994 144.542 552.208 144.007 552.708C143.465 553.207 143.193 553.842 143.208 554.577L143.336 560.569L139.696 553.464C139.19 552.522 138.219 552.008 137.177 552.144Z" fill="#B695F7"/>
<path fill-rule="evenodd" clip-rule="evenodd" d="M121.361 566.711L118.82 563.657C118.678 563.629 118.528 563.608 118.371 563.608C117.643 563.579 117.007 563.836 116.508 564.364C113.896 567.082 111.691 570.199 109.992 573.609H175.764C174.408 570.648 172.673 567.902 170.632 565.419C169.812 564.421 168.363 564.228 167.307 564.977L164.124 567.238L166.079 563.215C166.586 562.174 166.315 560.961 165.423 560.233C164.845 559.763 164.252 559.306 163.653 558.871C158.9 555.789 153.397 553.763 147.474 553.121C146.746 553.043 146.082 553.257 145.547 553.756C145.005 554.248 144.741 554.89 144.748 555.625L144.855 564.285L143.328 560.562L139.688 553.457C139.645 553.378 139.602 553.3 139.552 553.221C139.288 553.171 139.017 553.157 138.739 553.193C132.401 553.984 126.556 556.367 121.625 559.934C120.676 560.619 120.369 561.831 120.811 562.916L123.216 568.844L121.361 566.711Z" fill="#9564F2"/>
<path fill-rule="evenodd" clip-rule="evenodd" d="M152.599 556.888C152.635 556.688 152.506 556.496 152.307 556.46C152.107 556.424 151.914 556.553 151.878 556.752L148.617 573.545C148.61 573.566 148.61 573.594 148.61 573.616H149.352L152.599 556.888ZM160.635 568.551C160.728 568.366 160.649 568.145 160.471 568.059C160.285 567.966 160.064 568.045 159.978 568.223L157.452 573.352C157.409 573.438 157.402 573.523 157.424 573.609H158.144L160.635 568.551ZM117.401 566.611C117.273 566.454 117.044 566.425 116.88 566.554C116.723 566.682 116.695 566.91 116.823 567.075L122.019 573.616H122.861C122.861 573.537 122.832 573.452 122.782 573.388L117.401 566.611ZM139.732 561.104C139.718 560.904 139.539 560.747 139.332 560.769C139.132 560.783 138.975 560.961 138.997 561.168L140.053 573.609H140.795V573.58L139.732 561.104ZM127.642 558.55C127.564 558.365 127.35 558.272 127.157 558.35C126.971 558.429 126.879 558.643 126.957 558.835L133.095 573.609H133.865C133.865 573.559 133.858 573.516 133.837 573.466L127.642 558.55Z" fill="#5416CF"/>
<path fill-rule="evenodd" clip-rule="evenodd" d="M132.492 307.017C130.323 304.435 127.882 302.095 125.22 300.033L129.616 290.382C129.959 289.633 129.659 288.748 128.946 288.356L120.189 283.541C119.468 283.149 118.569 283.37 118.119 284.055L112.267 292.936C109.113 291.801 105.844 291.002 102.519 290.546L101.498 279.974C101.42 279.154 100.727 278.533 99.8994 278.555L89.9081 278.761C89.0874 278.776 88.4165 279.425 88.3737 280.238L87.7528 290.838C84.4485 291.43 81.2156 292.372 78.1111 293.649L71.9451 285.01C71.4669 284.34 70.5534 284.154 69.854 284.582L61.3043 289.754C60.6049 290.182 60.348 291.067 60.7119 291.801L65.4792 301.303C62.91 303.465 60.5763 305.89 58.5281 308.544L48.8722 304.149C48.1229 303.807 47.2379 304.107 46.8454 304.82L42.0281 313.573C41.6356 314.293 41.8569 315.192 42.542 315.641L51.4271 321.491C50.2924 324.644 49.486 327.911 49.0364 331.235L38.4598 332.255C37.6391 332.334 37.0182 333.033 37.0396 333.853L37.2466 343.84C37.2609 344.66 37.9103 345.331 38.7238 345.374L49.329 345.994C49.9213 349.297 50.8633 352.529 52.1408 355.632L43.4983 361.795C42.8275 362.273 42.6419 363.186 43.063 363.892L48.2371 372.438C48.6653 373.137 49.5502 373.394 50.2853 373.03L59.7913 368.265C61.9394 370.819 64.3587 373.144 66.9993 375.184L62.6317 384.865C62.2962 385.614 62.5889 386.491 63.3097 386.89L72.0664 391.706C72.7872 392.105 73.6935 391.877 74.1431 391.185L79.9452 382.289C83.0996 383.424 86.3682 384.23 89.6868 384.686L90.7501 395.265C90.8287 396.085 91.528 396.699 92.3488 396.678L102.34 396.471C103.161 396.456 103.832 395.8 103.874 394.987L104.453 384.401C107.757 383.816 110.99 382.874 114.094 381.597L120.303 390.222C120.781 390.892 121.688 391.071 122.394 390.65L130.944 385.478C131.65 385.05 131.907 384.158 131.529 383.424L126.726 373.957C129.295 371.803 131.629 369.378 133.684 366.724L143.369 371.09C144.111 371.425 144.996 371.133 145.396 370.412L150.213 361.659C150.613 360.939 150.384 360.033 149.692 359.584L140.792 353.784C141.927 350.631 142.734 347.364 143.19 344.047L153.774 342.984C154.595 342.906 155.209 342.206 155.187 341.386L154.98 331.399C154.966 330.579 154.309 329.908 153.496 329.866L142.905 329.288C142.32 325.985 141.378 322.754 140.1 319.65L148.728 313.444C149.392 312.966 149.578 312.06 149.157 311.354L143.983 302.808C143.554 302.102 142.662 301.845 141.927 302.223L132.492 307.017ZM76.0701 338.041C75.8417 326.962 84.6341 317.796 95.7173 317.56C106.801 317.332 115.971 326.121 116.207 337.199C116.435 348.277 107.643 357.444 96.5594 357.672C85.4762 357.914 76.2984 349.119 76.0701 338.041Z" fill="#B7D9F9"/>
<path fill-rule="evenodd" clip-rule="evenodd" d="M307.23 500.469C306.281 499.342 305.218 498.315 304.054 497.416L305.974 493.2C306.124 492.872 305.996 492.487 305.682 492.316L301.856 490.211C301.542 490.04 301.15 490.133 300.95 490.432L298.395 494.313C297.018 493.821 295.59 493.464 294.134 493.272L293.685 488.656C293.649 488.3 293.349 488.028 292.985 488.036L288.618 488.128C288.261 488.135 287.968 488.421 287.947 488.778L287.676 493.414C286.234 493.671 284.821 494.085 283.465 494.641L280.767 490.868C280.561 490.575 280.161 490.49 279.854 490.682L276.122 492.943C275.815 493.129 275.7 493.521 275.865 493.842L277.949 497.994C276.828 498.936 275.808 499.998 274.908 501.161L270.691 499.242C270.362 499.093 269.977 499.221 269.806 499.535L267.7 503.358C267.529 503.672 267.622 504.064 267.921 504.264L271.804 506.818C271.311 508.195 270.955 509.621 270.762 511.077L266.144 511.519C265.788 511.555 265.516 511.854 265.524 512.218L265.616 516.584C265.623 516.94 265.909 517.233 266.266 517.254L270.898 517.525C271.154 518.966 271.568 520.379 272.125 521.734L268.35 524.431C268.057 524.637 267.971 525.037 268.164 525.344L270.426 529.074C270.612 529.381 271.005 529.495 271.326 529.331L275.479 527.248C276.421 528.361 277.477 529.381 278.626 530.273L276.721 534.503C276.571 534.831 276.707 535.216 277.014 535.388L280.839 537.492C281.153 537.663 281.545 537.563 281.745 537.264L284.279 533.376C285.656 533.875 287.083 534.225 288.539 534.424L289.003 539.047C289.039 539.404 289.346 539.675 289.703 539.668L294.07 539.575C294.427 539.568 294.72 539.282 294.741 538.926L294.991 534.296C296.433 534.039 297.845 533.626 299.201 533.069L301.913 536.836C302.12 537.128 302.52 537.207 302.827 537.021L306.559 534.76C306.866 534.574 306.98 534.182 306.816 533.861L304.718 529.724C305.839 528.782 306.859 527.719 307.758 526.563L311.99 528.468C312.319 528.618 312.704 528.482 312.875 528.176L314.981 524.352C315.152 524.038 315.052 523.646 314.752 523.446L310.863 520.914C311.362 519.537 311.712 518.11 311.912 516.655L316.536 516.191C316.893 516.156 317.164 515.856 317.157 515.492L317.065 511.127C317.057 510.77 316.772 510.477 316.415 510.456L311.783 510.206C311.526 508.765 311.113 507.353 310.556 505.998L314.324 503.287C314.617 503.08 314.695 502.681 314.51 502.374L312.247 498.643C312.062 498.336 311.669 498.222 311.348 498.386L307.23 500.469ZM282.573 514.03C282.473 509.186 286.313 505.184 291.159 505.085C296.004 504.985 300.008 508.83 300.108 513.666C300.208 518.51 296.361 522.512 291.522 522.611C286.684 522.711 282.68 518.866 282.573 514.03Z" fill="#B7D9F9"/>
<path fill-rule="evenodd" clip-rule="evenodd" d="M582.373 339.182C585.177 336.628 588.253 334.381 591.536 332.484L588.089 321.063C587.825 320.178 588.282 319.237 589.145 318.901L599.636 314.85C600.5 314.514 601.47 314.9 601.87 315.734L607.051 326.52C610.741 325.728 614.509 325.329 618.277 325.322L621.01 313.687C621.225 312.781 622.088 312.203 623.009 312.346L634.121 314.079C635.027 314.222 635.683 315.042 635.612 315.962L634.706 327.882C638.303 329.038 641.764 330.579 645.033 332.469L653.211 323.766C653.846 323.089 654.888 323.017 655.609 323.602L664.366 330.657C665.087 331.235 665.236 332.27 664.715 333.033L657.964 342.906C660.505 345.702 662.739 348.762 664.63 352.029L676.056 348.584C676.941 348.32 677.883 348.776 678.218 349.64L682.272 360.126C682.607 360.989 682.222 361.959 681.387 362.358L670.596 367.537C671.388 371.225 671.788 374.992 671.795 378.758L683.435 381.49C684.334 381.704 684.919 382.568 684.777 383.488L683.042 394.595C682.9 395.501 682.079 396.157 681.158 396.085L669.233 395.18C668.077 398.775 666.535 402.235 664.644 405.502L673.351 413.677C674.029 414.311 674.1 415.353 673.515 416.073L666.457 424.819C665.879 425.54 664.844 425.689 664.08 425.169L654.203 418.42C651.42 420.946 648.372 423.171 645.118 425.054L648.53 436.511C648.794 437.395 648.33 438.337 647.473 438.665L636.982 442.717C636.119 443.052 635.148 442.66 634.749 441.825L629.617 431.032C625.928 431.824 622.159 432.231 618.391 432.238L615.608 443.88C615.394 444.778 614.53 445.356 613.617 445.214L602.505 443.48C601.592 443.338 600.942 442.51 601.014 441.59L601.963 429.691C598.366 428.536 594.905 427.002 591.629 425.119L583.4 433.807C582.765 434.478 581.723 434.549 581.002 433.971L572.246 426.916C571.525 426.338 571.375 425.297 571.903 424.534L578.683 414.697C576.142 411.9 573.901 408.847 572.01 405.58L560.549 408.99C559.664 409.254 558.722 408.79 558.393 407.934L554.34 397.448C554.004 396.585 554.39 395.615 555.232 395.215L566.03 390.086C565.237 386.398 564.831 382.632 564.824 378.865L553.177 376.083C552.277 375.869 551.699 375.006 551.842 374.093L553.576 362.986C553.719 362.073 554.547 361.424 555.467 361.495L567.371 362.444C568.527 358.849 570.062 355.389 571.953 352.115L563.261 343.89C562.59 343.255 562.518 342.214 563.096 341.493L570.155 332.74C570.74 332.02 571.775 331.87 572.538 332.398L582.373 339.182ZM640.622 382.275C642.549 369.956 634.121 358.407 621.796 356.481C609.47 354.554 597.916 362.979 595.989 375.299C594.062 387.618 602.491 399.167 614.816 401.093C627.141 403.019 638.695 394.595 640.622 382.275Z" fill="#B7D9F9"/>
<path fill-rule="evenodd" clip-rule="evenodd" d="M54.6313 249.764C53.3895 248.287 51.9908 246.946 50.4635 245.762L52.9828 240.241C53.1755 239.813 53.0113 239.306 52.5974 239.078L47.5874 236.324C47.1735 236.096 46.6596 236.225 46.4027 236.617L43.0557 241.703C41.2501 241.054 39.3802 240.597 37.4747 240.333L36.8896 234.284C36.8468 233.813 36.4471 233.464 35.9761 233.471L30.2596 233.592C29.7886 233.599 29.4103 233.97 29.3818 234.441L29.025 240.512C27.1337 240.847 25.2854 241.389 23.5083 242.124L19.9757 237.18C19.7045 236.795 19.1764 236.688 18.7767 236.931L13.881 239.891C13.4813 240.134 13.3315 240.647 13.5456 241.068L16.2789 246.504C14.8087 247.738 13.4742 249.129 12.2967 250.648L6.77288 248.13C6.34468 247.938 5.83798 248.102 5.6096 248.516L2.85477 253.523C2.6264 253.937 2.75488 254.451 3.1474 254.707L8.23585 258.053C7.58641 259.858 7.12972 261.727 6.86566 263.631L0.813698 264.216C0.342678 264.259 -0.00702938 264.659 0.000107284 265.129L0.121462 270.843C0.128599 271.314 0.49975 271.699 0.97077 271.721L7.04408 272.077C7.3795 273.968 7.92181 275.815 8.65689 277.592L3.71123 281.123C3.32585 281.394 3.21881 281.914 3.46146 282.321L6.42311 287.215C6.66575 287.614 7.1796 287.764 7.59353 287.55L13.0317 284.818C14.2663 286.28 15.6437 287.607 17.1567 288.777L14.6588 294.319C14.4662 294.747 14.6375 295.254 15.0443 295.475L20.0542 298.229C20.4681 298.457 20.9819 298.328 21.2388 297.929L24.5645 292.836C26.3701 293.485 28.24 293.949 30.1455 294.205L30.7521 300.262C30.802 300.732 31.1946 301.082 31.6656 301.068L37.382 300.946C37.853 300.939 38.2384 300.561 38.2598 300.098L38.5881 294.034C40.4793 293.699 42.3277 293.157 44.1119 292.429L47.6659 297.365C47.9443 297.751 48.4581 297.851 48.8649 297.608L53.7607 294.648C54.1675 294.405 54.3102 293.891 54.0961 293.471L51.3485 288.049C52.8186 286.815 54.1531 285.424 55.3307 283.905L60.8759 286.401C61.3041 286.594 61.8108 286.423 62.032 286.016L64.7868 281.008C65.0151 280.595 64.8867 280.081 64.4871 279.824L59.3915 276.5C60.0409 274.695 60.5048 272.826 60.7617 270.922L66.8207 270.315C67.2917 270.265 67.6414 269.873 67.6343 269.402L67.513 263.688C67.5059 263.218 67.1276 262.832 66.6637 262.811L60.5976 262.483C60.2621 260.592 59.7197 258.745 58.9918 256.962L63.9304 253.409C64.3087 253.138 64.4157 252.617 64.173 252.211L61.2113 247.317C60.9687 246.911 60.4549 246.768 60.0338 246.982L54.6313 249.764ZM22.3308 267.526C22.1952 261.185 27.2337 255.934 33.5781 255.806C39.9226 255.67 45.1753 260.707 45.3037 267.048C45.4393 273.39 40.4008 278.64 34.0563 278.769C27.7118 278.897 22.4664 273.868 22.3308 267.526Z" fill="#B7D9F9"/>
<path fill-rule="evenodd" clip-rule="evenodd" d="M886.496 379.036C887.652 377.988 888.915 377.06 890.271 376.276L888.851 371.568C888.743 371.204 888.929 370.812 889.286 370.676L893.611 369.007C893.968 368.871 894.367 369.028 894.531 369.371L896.665 373.815C898.185 373.487 899.734 373.323 901.29 373.323L902.417 368.529C902.503 368.158 902.86 367.915 903.238 367.972L907.813 368.686C908.191 368.743 908.455 369.085 908.427 369.463L908.055 374.371C909.54 374.849 910.96 375.484 912.309 376.261L915.677 372.673C915.941 372.395 916.369 372.367 916.669 372.602L920.273 375.505C920.573 375.748 920.63 376.169 920.416 376.483L917.633 380.549C918.682 381.697 919.603 382.96 920.38 384.308L925.091 382.889C925.454 382.782 925.847 382.967 925.983 383.324L927.653 387.647C927.788 388.003 927.631 388.403 927.289 388.567L922.843 390.7C923.171 392.219 923.335 393.767 923.335 395.322L928.131 396.449C928.502 396.535 928.745 396.891 928.687 397.27L927.974 401.842C927.917 402.213 927.574 402.484 927.196 402.456L922.286 402.085C921.808 403.568 921.173 404.988 920.395 406.336L923.984 409.703C924.263 409.967 924.291 410.395 924.056 410.695L921.151 414.297C920.916 414.597 920.487 414.654 920.173 414.44L916.106 411.658C914.957 412.699 913.708 413.612 912.366 414.39L913.772 419.112C913.879 419.476 913.686 419.861 913.336 419.997L909.012 421.666C908.655 421.802 908.255 421.645 908.091 421.302L905.979 416.858C904.458 417.186 902.91 417.35 901.354 417.357L900.205 422.151C900.119 422.522 899.762 422.757 899.384 422.7L894.81 421.987C894.431 421.93 894.167 421.587 894.196 421.209L894.588 416.309C893.104 415.831 891.677 415.203 890.335 414.425L886.945 418.007C886.681 418.285 886.253 418.313 885.96 418.071L882.356 415.16C882.057 414.918 881.999 414.497 882.214 414.183L885.004 410.131C883.955 408.983 883.034 407.72 882.256 406.372L877.532 407.777C877.168 407.884 876.783 407.692 876.647 407.342L874.977 403.019C874.841 402.662 874.998 402.263 875.341 402.099L879.787 399.987C879.459 398.468 879.295 396.92 879.287 395.365L874.492 394.224C874.121 394.138 873.885 393.781 873.942 393.403L874.656 388.831C874.713 388.453 875.055 388.189 875.434 388.217L880.337 388.61C880.815 387.126 881.443 385.699 882.221 384.358L878.638 380.97C878.36 380.706 878.331 380.278 878.574 379.985L881.486 376.383C881.728 376.083 882.149 376.026 882.47 376.24L886.496 379.036ZM910.496 396.792C911.288 391.713 907.82 386.955 902.739 386.163C897.657 385.371 892.904 388.838 892.105 393.917C891.313 398.996 894.781 403.747 899.863 404.546C904.937 405.337 909.697 401.871 910.496 396.792Z" fill="#B7D9F9"/>
<path fill-rule="evenodd" clip-rule="evenodd" d="M361.113 170.561C360.442 169.391 359.65 168.293 358.751 167.287L361.17 163.799C361.355 163.528 361.305 163.157 361.049 162.95L357.944 160.432C357.687 160.225 357.316 160.246 357.095 160.489L354.155 163.57C352.991 162.9 351.764 162.351 350.486 161.93L350.843 157.692C350.872 157.364 350.643 157.072 350.315 157.022L346.368 156.387C346.047 156.337 345.733 156.544 345.655 156.858L344.649 160.988C343.307 160.988 341.965 161.124 340.652 161.409L338.839 157.564C338.697 157.264 338.354 157.129 338.047 157.243L334.315 158.67C334.008 158.784 333.844 159.119 333.936 159.433L335.135 163.513C333.972 164.184 332.88 164.968 331.881 165.867L328.391 163.449C328.12 163.264 327.749 163.314 327.542 163.57L325.023 166.673C324.816 166.93 324.837 167.301 325.08 167.522L328.163 170.461C327.492 171.624 326.942 172.851 326.521 174.128L322.282 173.771C321.954 173.743 321.661 173.971 321.611 174.299L320.976 178.244C320.926 178.565 321.133 178.879 321.447 178.957L325.579 179.956C325.572 181.297 325.715 182.638 326 183.951L322.154 185.763C321.854 185.905 321.718 186.248 321.833 186.554L323.26 190.285C323.374 190.592 323.71 190.756 324.024 190.663L328.106 189.465C328.769 190.628 329.554 191.712 330.447 192.703L328.034 196.206C327.849 196.477 327.899 196.841 328.156 197.048L331.26 199.566C331.517 199.773 331.888 199.751 332.117 199.509L335.035 196.42C336.199 197.09 337.426 197.647 338.704 198.061L338.368 202.305C338.34 202.633 338.575 202.926 338.896 202.976L342.843 203.61C343.164 203.66 343.478 203.454 343.557 203.133L344.541 199.002C345.883 199.009 347.225 198.867 348.538 198.589L350.365 202.426C350.508 202.726 350.85 202.861 351.157 202.747L354.89 201.321C355.197 201.206 355.361 200.871 355.268 200.55L354.055 196.477C355.218 195.814 356.317 195.022 357.316 194.123L360.82 196.534C361.091 196.72 361.462 196.67 361.662 196.413L364.182 193.31C364.389 193.053 364.367 192.682 364.125 192.454L361.034 189.536C361.705 188.373 362.262 187.146 362.676 185.87L366.922 186.205C367.25 186.233 367.543 186.005 367.593 185.677L368.228 181.732C368.278 181.411 368.071 181.097 367.75 181.019L363.618 180.034C363.625 178.693 363.482 177.352 363.204 176.04L367.043 174.213C367.343 174.071 367.479 173.728 367.357 173.422L365.93 169.691C365.816 169.384 365.48 169.22 365.159 169.313L361.113 170.561ZM336.677 178.743C337.376 174.363 341.501 171.381 345.876 172.088C350.258 172.787 353.241 176.91 352.535 181.283C351.835 185.663 347.71 188.644 343.335 187.938C338.953 187.239 335.97 183.123 336.677 178.743Z" fill="#B7D9F9"/>
<path fill-rule="evenodd" clip-rule="evenodd" d="M325.63 243.429C324.267 241.047 322.654 238.814 320.82 236.781L325.744 229.69C326.123 229.141 326.016 228.392 325.502 227.971L319.193 222.842C318.672 222.421 317.923 222.471 317.459 222.949L311.485 229.212C309.123 227.843 306.625 226.73 304.027 225.881L304.748 217.271C304.805 216.6 304.334 216.008 303.678 215.901L295.649 214.617C294.992 214.51 294.357 214.931 294.2 215.58L292.159 223.984C289.426 223.976 286.7 224.262 284.031 224.832L280.348 217.021C280.063 216.415 279.356 216.13 278.735 216.372L271.135 219.275C270.514 219.511 270.178 220.189 270.364 220.831L272.797 229.127C270.428 230.482 268.209 232.087 266.175 233.913L259.081 228.991C258.531 228.613 257.782 228.72 257.361 229.234L252.23 235.54C251.809 236.06 251.858 236.809 252.337 237.273L258.603 243.244C257.232 245.605 256.119 248.102 255.27 250.698L246.656 249.978C245.985 249.921 245.393 250.392 245.286 251.048L244.001 259.073C243.894 259.729 244.315 260.364 244.964 260.521L253.371 262.561C253.364 265.293 253.65 268.018 254.221 270.686L246.406 274.367C245.799 274.652 245.514 275.352 245.757 275.979L248.661 283.569C248.897 284.197 249.575 284.525 250.217 284.34L258.524 281.9C259.873 284.261 261.472 286.465 263.291 288.491L258.389 295.611C258.01 296.16 258.117 296.909 258.638 297.33L264.947 302.459C265.468 302.88 266.225 302.83 266.681 302.345L272.626 296.067C274.988 297.437 277.486 298.557 280.077 299.406L279.392 308.037C279.342 308.701 279.806 309.293 280.462 309.4L288.491 310.684C289.148 310.791 289.783 310.37 289.94 309.721L291.945 301.324C294.678 301.332 297.405 301.053 300.074 300.483L303.792 308.294C304.077 308.9 304.777 309.178 305.405 308.943L313.005 306.04C313.633 305.804 313.969 305.12 313.776 304.478L311.307 296.203C313.676 294.847 315.903 293.242 317.93 291.423L325.052 296.324C325.602 296.702 326.351 296.595 326.772 296.074L331.903 289.768C332.324 289.248 332.274 288.491 331.789 288.035L325.509 282.093C326.879 279.732 328 277.235 328.849 274.645L337.484 275.33C338.148 275.387 338.747 274.916 338.847 274.26L340.132 266.235C340.239 265.579 339.818 264.944 339.168 264.787L330.769 262.782C330.776 260.05 330.497 257.325 329.926 254.657L337.741 250.941C338.348 250.656 338.626 249.956 338.383 249.329L335.479 241.732C335.236 241.104 334.558 240.769 333.916 240.961L325.63 243.429ZM275.938 260.072C277.365 251.169 285.743 245.106 294.65 246.532C303.557 247.959 309.623 256.334 308.195 265.236C306.768 274.139 298.389 280.202 289.483 278.776C280.576 277.349 274.51 268.974 275.938 260.072Z" fill="#B7D9F9"/>
<path fill-rule="evenodd" clip-rule="evenodd" d="M524.311 310.876C523.569 309.578 522.691 308.358 521.685 307.245L524.375 303.379C524.582 303.079 524.525 302.666 524.24 302.437L520.793 299.641C520.507 299.413 520.1 299.434 519.843 299.698L516.582 303.115C515.29 302.366 513.927 301.76 512.514 301.296L512.906 296.595C512.935 296.231 512.685 295.903 512.321 295.846L507.939 295.147C507.583 295.09 507.233 295.318 507.147 295.675L506.034 300.262C504.542 300.255 503.058 300.412 501.595 300.725L499.582 296.46C499.425 296.131 499.04 295.974 498.697 296.103L494.551 297.687C494.208 297.815 494.03 298.186 494.13 298.535L495.457 303.065C494.166 303.807 492.952 304.684 491.839 305.676L487.971 302.987C487.671 302.78 487.257 302.837 487.029 303.122L484.231 306.568C484.003 306.853 484.024 307.26 484.288 307.516L487.707 310.776C486.958 312.068 486.351 313.43 485.887 314.842L481.184 314.45C480.82 314.422 480.492 314.671 480.435 315.035L479.735 319.415C479.678 319.772 479.907 320.121 480.263 320.207L484.852 321.32C484.852 322.811 485.002 324.294 485.316 325.757L481.048 327.768C480.72 327.925 480.563 328.31 480.692 328.646L482.276 332.79C482.404 333.133 482.776 333.311 483.125 333.211L487.657 331.884C488.392 333.168 489.27 334.381 490.262 335.48L487.586 339.367C487.379 339.667 487.436 340.074 487.721 340.302L491.168 343.098C491.454 343.326 491.868 343.305 492.117 343.034L495.365 339.61C496.649 340.359 498.019 340.965 499.432 341.429L499.054 346.137C499.026 346.501 499.283 346.822 499.639 346.879L504.021 347.578C504.378 347.635 504.728 347.407 504.814 347.05L505.905 342.47C507.397 342.478 508.881 342.321 510.344 342.014L512.371 346.28C512.528 346.608 512.914 346.765 513.249 346.629L517.395 345.046C517.738 344.917 517.924 344.546 517.817 344.197L516.468 339.681C517.759 338.939 518.973 338.069 520.086 337.07L523.975 339.745C524.275 339.952 524.682 339.895 524.917 339.61L527.715 336.164C527.943 335.879 527.922 335.465 527.651 335.216L524.225 331.97C524.975 330.686 525.588 329.316 526.045 327.904L530.755 328.282C531.119 328.31 531.44 328.054 531.498 327.697L532.197 323.317C532.254 322.96 532.026 322.611 531.669 322.525L527.087 321.434C527.094 319.943 526.937 318.459 526.63 316.997L530.898 314.971C531.226 314.814 531.383 314.429 531.248 314.093L529.663 309.949C529.535 309.607 529.164 309.421 528.814 309.528L524.311 310.876ZM497.184 319.957C497.962 315.099 502.537 311.789 507.397 312.567C512.257 313.344 515.568 317.917 514.791 322.775C514.013 327.633 509.438 330.943 504.578 330.165C499.718 329.395 496.407 324.822 497.184 319.957Z" fill="#B7D9F9"/>
<path fill-rule="evenodd" clip-rule="evenodd" d="M117.18 205.158C116.509 203.988 115.717 202.883 114.81 201.884L117.237 198.389C117.422 198.118 117.372 197.747 117.115 197.54L114.004 195.015C113.747 194.808 113.376 194.829 113.147 195.072L110.2 198.16C109.037 197.49 107.802 196.933 106.524 196.52L106.881 192.275C106.91 191.947 106.681 191.655 106.353 191.598L102.4 190.963C102.078 190.913 101.764 191.12 101.686 191.434L100.68 195.571C99.3308 195.564 97.9891 195.707 96.6759 195.992L94.8632 192.14C94.7205 191.84 94.3779 191.705 94.071 191.819L90.3314 193.245C90.0245 193.36 89.8604 193.695 89.9532 194.009L91.1522 198.096C89.9817 198.767 88.8898 199.559 87.8907 200.457L84.3937 198.032C84.1225 197.847 83.7514 197.896 83.5444 198.153L81.018 201.264C80.8111 201.52 80.8325 201.891 81.0752 202.12L84.1653 205.066C83.4945 206.228 82.9378 207.462 82.5239 208.739L78.2776 208.383C77.9493 208.354 77.6567 208.582 77.5996 208.911L76.9645 212.862C76.9145 213.183 77.1214 213.497 77.4354 213.576L81.5747 214.582C81.5676 215.93 81.7103 217.271 81.9958 218.584L78.142 220.395C77.8423 220.538 77.7066 220.881 77.8208 221.187L79.2482 224.932C79.3695 225.239 79.6978 225.403 80.0118 225.31L84.1011 224.112C84.7648 225.275 85.5569 226.366 86.449 227.358L84.0298 230.867C83.8442 231.138 83.8941 231.509 84.151 231.716L87.2626 234.241C87.5195 234.448 87.8907 234.427 88.1191 234.184L91.0451 231.089C92.2084 231.766 93.443 232.315 94.7205 232.729L94.385 236.981C94.3565 237.309 94.592 237.601 94.9132 237.651L98.8668 238.286C99.188 238.336 99.502 238.129 99.5805 237.808L100.565 233.671C101.914 233.678 103.256 233.535 104.569 233.257L106.403 237.109C106.546 237.409 106.888 237.544 107.195 237.43L110.935 236.003C111.242 235.889 111.406 235.554 111.313 235.233L110.1 231.153C111.27 230.482 112.362 229.697 113.361 228.799L116.873 231.217C117.144 231.402 117.515 231.352 117.722 231.096L120.248 227.985C120.455 227.729 120.434 227.358 120.191 227.129L117.094 224.205C117.772 223.042 118.321 221.808 118.735 220.531L122.989 220.866C123.317 220.895 123.61 220.667 123.66 220.338L124.295 216.386C124.345 216.058 124.138 215.752 123.817 215.673L119.677 214.689C119.685 213.34 119.542 211.999 119.263 210.687L123.117 208.853C123.417 208.711 123.553 208.368 123.438 208.062L122.011 204.317C121.89 204.01 121.561 203.846 121.24 203.939L117.18 205.158ZM92.6936 213.355C93.393 208.968 97.5252 205.979 101.914 206.685C106.303 207.391 109.294 211.514 108.587 215.901C107.888 220.288 103.756 223.277 99.3665 222.571C94.9846 221.865 91.9942 217.742 92.6936 213.355Z" fill="#B7D9F9"/>
<path fill-rule="evenodd" clip-rule="evenodd" d="M649.887 253.545C651.414 252.161 653.084 250.934 654.868 249.907L652.991 243.693C652.848 243.215 653.098 242.702 653.569 242.516L659.271 240.312C659.742 240.134 660.271 240.341 660.485 240.79L663.304 246.654C665.309 246.226 667.357 246.005 669.406 246.005L670.89 239.677C671.004 239.185 671.475 238.871 671.975 238.95L678.012 239.891C678.505 239.97 678.862 240.419 678.826 240.911L678.333 247.388C680.289 248.016 682.173 248.851 683.95 249.878L688.396 245.149C688.739 244.785 689.31 244.742 689.702 245.056L694.462 248.894C694.855 249.207 694.933 249.771 694.655 250.185L690.987 255.556C692.364 257.076 693.584 258.738 694.612 260.514L700.828 258.638C701.306 258.495 701.82 258.745 702.006 259.209L704.211 264.908C704.389 265.379 704.182 265.907 703.733 266.121L697.867 268.939C698.295 270.943 698.516 272.99 698.516 275.038L704.846 276.522C705.339 276.636 705.653 277.106 705.574 277.606L704.632 283.641C704.554 284.133 704.111 284.49 703.612 284.454L697.131 283.962C696.503 285.916 695.668 287.8 694.641 289.576L699.372 294.02C699.736 294.362 699.779 294.933 699.465 295.325L695.626 300.083C695.312 300.476 694.748 300.554 694.334 300.276L688.96 296.609C687.447 297.979 685.791 299.192 684.021 300.212L685.877 306.439C686.02 306.917 685.77 307.431 685.299 307.609L679.597 309.813C679.126 309.992 678.598 309.785 678.383 309.328L675.593 303.465C673.588 303.9 671.539 304.114 669.491 304.121L667.978 310.448C667.864 310.94 667.393 311.254 666.893 311.176L660.856 310.234C660.363 310.156 660.007 309.706 660.042 309.207L660.556 302.737C658.601 302.109 656.717 301.275 654.939 300.247L650.465 304.97C650.122 305.334 649.551 305.376 649.159 305.055L644.399 301.218C644.006 300.904 643.928 300.34 644.213 299.926L647.896 294.583C646.511 293.064 645.298 291.402 644.27 289.626L638.04 291.48C637.562 291.623 637.048 291.373 636.869 290.903L634.664 285.203C634.486 284.732 634.693 284.204 635.15 283.99L641.016 281.201C640.581 279.197 640.366 277.149 640.359 275.102L634.029 273.59C633.537 273.475 633.223 273.005 633.301 272.505L634.243 266.47C634.322 265.978 634.771 265.622 635.271 265.657L641.744 266.171C642.372 264.216 643.207 262.333 644.234 260.557L639.51 256.084C639.146 255.742 639.11 255.171 639.424 254.779L643.264 250.021C643.578 249.628 644.142 249.55 644.556 249.835L649.887 253.545ZM681.552 276.971C682.601 270.273 678.019 263.995 671.318 262.947C664.617 261.898 658.336 266.478 657.287 273.176C656.238 279.874 660.82 286.152 667.521 287.2C674.223 288.249 680.503 283.669 681.552 276.971Z" fill="#B7D9F9"/>
<path fill-rule="evenodd" clip-rule="evenodd" d="M618.265 435.569C618.265 474.318 609.258 512.525 582.032 541.401C556.418 568.558 523.554 579.915 486.529 579.915C449.39 579.915 416.226 568.672 390.505 541.401C363.307 512.561 354.358 474.268 354.358 435.569V337.456C354.358 298.821 363.172 260.457 390.241 231.545C415.883 204.16 449.061 193.11 486.015 193.11C523.147 193.11 556.133 204.395 581.86 231.624C609.187 260.535 618.272 298.628 618.272 337.456V435.569H618.265ZM284.568 423.856H321.886V496.546H284.568V574.529H198.315V496.546H46.0039V439.714L199.685 198.403H284.568V423.856ZM890.6 423.856H927.917V496.546H890.6V574.529H804.346V496.546H652.035V439.714L805.716 198.403H890.6V423.856ZM526.451 331.556C526.451 315.377 524.467 295.582 515.404 281.686C508.396 270.943 498.911 265.279 486.008 265.279C473.162 265.279 463.642 270.815 456.812 281.643C448.012 295.611 446.085 315.435 446.085 331.556V440.855C446.085 457.148 447.969 477.364 456.976 491.445C463.927 502.31 473.612 507.745 486.529 507.745C499.332 507.745 508.781 502.181 515.646 491.445C524.631 477.4 526.451 457.105 526.451 440.855V331.556ZM136.968 423.856H198.315V331.05L136.968 423.856ZM742.999 423.856H804.346V331.05L742.999 423.856Z" fill="#010F1C"/>
<path fill-rule="evenodd" clip-rule="evenodd" d="M606.14 435.569C606.14 474.318 597.133 512.525 569.907 541.401C544.293 568.558 511.429 579.915 474.404 579.915C437.265 579.915 404.101 568.672 378.38 541.401C351.175 512.561 342.233 474.268 342.233 435.569V337.456C342.233 298.821 351.047 260.457 378.116 231.545C403.758 204.16 436.936 193.11 473.89 193.11C511.022 193.11 544.008 204.395 569.735 231.624C597.062 260.535 606.147 298.628 606.147 337.456V435.569H606.14ZM272.443 423.856H309.761V496.546H272.443V574.529H186.19V496.546H33.8789V439.714L187.56 198.403H272.443V423.856ZM878.475 423.856H915.792V496.546H878.475V574.529H792.221V496.546H639.917V439.714L793.598 198.403H878.482V423.856H878.475ZM514.326 331.556C514.326 315.377 512.342 295.582 503.279 281.686C496.271 270.943 486.786 265.279 473.883 265.279C461.037 265.279 451.517 270.815 444.687 281.643C435.887 295.611 433.96 315.435 433.96 331.556V440.855C433.96 457.148 435.844 477.364 444.851 491.445C451.802 502.31 461.487 507.745 474.404 507.745C487.207 507.745 496.656 502.181 503.521 491.445C512.506 477.4 514.326 457.105 514.326 440.855V331.556ZM124.843 423.856H186.19V331.05L124.843 423.856ZM730.874 423.856H792.221V331.05L730.874 423.856Z" fill="white"/>
<path fill-rule="evenodd" clip-rule="evenodd" d="M603.109 435.569C603.109 479.725 591.305 514.337 567.704 539.318C544.182 564.3 513.116 576.79 474.407 576.883C435.44 576.797 404.196 564.307 380.588 539.318C357.065 514.337 345.269 479.725 345.269 435.569V337.456C345.269 293.214 356.987 258.602 380.331 233.621C403.761 208.64 434.919 196.149 473.886 196.149C512.595 196.149 543.746 208.64 567.526 233.714C591.219 258.873 603.109 293.399 603.109 337.463V435.569ZM269.413 426.895H306.731V493.514H269.413V571.497H189.233V493.514H36.9219V440.598L189.233 201.435H269.413V426.895ZM119.208 426.895H189.233V320.956L119.208 426.895ZM517.362 331.556C517.362 309.086 513.544 291.823 505.822 280.031C498.1 268.147 487.509 262.248 473.886 262.248C460.176 262.248 449.585 268.147 442.12 280.031C434.655 291.83 430.923 309.093 430.923 331.556V440.855C430.923 463.932 434.741 481.28 442.292 493.079C449.842 504.878 460.519 510.777 474.399 510.777C488.023 510.777 498.529 504.878 506.079 493.079C513.63 481.28 517.362 463.932 517.362 440.855V331.556ZM875.444 426.895H912.762V493.514H875.444V571.497H795.264V493.514H642.953V440.598L795.264 201.435H875.444V426.895ZM725.239 426.895H795.264V320.956L725.239 426.895Z" fill="#DFB68D"/>
<path fill-rule="evenodd" clip-rule="evenodd" d="M875.439 351.886L757.763 493.514H694.125L749.484 426.895H795.259V371.803L875.439 275.302V351.886ZM875.439 373.43L775.661 493.514H793.56L875.446 394.965V373.43H875.439Z" fill="#4D5765"/>
<path fill-rule="evenodd" clip-rule="evenodd" d="M269.413 363.871L161.692 493.514H98.0547L153.414 426.895H189.233V383.787L269.413 287.286V363.871ZM269.413 385.407L179.591 493.514H189.233V503.451L269.413 406.95V385.407Z" fill="#4D5765"/>
<path fill-rule="evenodd" clip-rule="evenodd" d="M400.683 556.36C395.98 553.214 391.491 549.704 387.231 545.838L437.972 484.776C439.243 487.8 440.684 490.568 442.297 493.086C443.924 495.626 445.694 497.894 447.614 499.892L400.683 556.36ZM375.377 533.39L432.556 464.574C431.471 457.476 430.921 449.579 430.921 440.855V371.561L348.172 471.151C352.475 495.79 361.546 516.541 375.377 533.39ZM555.014 222.222C559.389 225.703 563.556 229.533 567.524 233.707C578.015 244.842 586.187 257.818 592.039 272.634L517.361 362.508V331.556C517.361 309.585 513.707 292.593 506.32 280.816L555.014 222.222ZM598.126 292.023L517.361 389.223V415.938L601.909 314.186C601.081 306.454 599.818 299.063 598.126 292.023Z" fill="#4D5765"/>
<path fill-rule="evenodd" clip-rule="evenodd" d="M369.116 566.033L368.517 573.652L359.824 573.759L359.246 565.362L369.116 566.033Z" fill="#2B2468"/>
<path fill-rule="evenodd" clip-rule="evenodd" d="M330.563 564.471L329.135 571.083L320.828 570.62L321.356 562.623L330.563 564.471Z" fill="#2B2468"/>
<path fill-rule="evenodd" clip-rule="evenodd" d="M331.355 566.839C331.355 566.839 318.167 567.039 318.973 565.077C323.933 553.064 322.284 541.201 333.004 529.046C333.725 521.306 334.395 512.882 330.527 502.888C328.907 498.715 325.746 490.268 330.085 480.902L348.312 485.418C349.254 493.842 350.46 509.322 346.806 529.253C344.908 539.589 332.304 553.656 331.355 566.839Z" fill="#2B2468"/>
<path fill-rule="evenodd" clip-rule="evenodd" d="M331.357 566.839C331.357 566.839 327.075 566.903 323.535 566.596C327.646 554.926 327.896 540.467 337.965 529.046C338.686 521.306 339.357 512.882 335.489 502.888C334.062 499.214 331.443 490.297 333.805 481.822L348.314 485.418C349.256 493.842 350.462 509.322 346.808 529.253C344.909 539.589 332.306 553.656 331.357 566.839Z" fill="#332A7C"/>
<path fill-rule="evenodd" clip-rule="evenodd" d="M370.601 568.729C366.297 569.764 361.994 569.978 357.897 568.729C358.932 552.501 351.945 541.173 355.193 528.54C350.54 517.033 342.582 510.242 335.631 499.414C330.942 492.088 331.078 484.926 333.19 479.925C340.434 480.81 348.092 481.059 355.328 481.944C358.404 498.094 366.14 512.618 368.66 525.593C369.509 538.783 369.345 557.473 370.601 568.729Z" fill="#2B2468"/>
<path fill-rule="evenodd" clip-rule="evenodd" d="M370.599 568.729C368.43 569.25 366.26 569.564 364.119 569.586C365.018 553.542 358.174 541.073 361.393 528.54C356.74 517.033 348.783 510.242 341.831 499.414C337.671 492.908 337.307 485.56 338.756 480.489C344.279 480.974 349.924 481.28 355.327 481.937C358.403 498.087 366.139 512.611 368.658 525.586C369.507 538.783 369.343 557.473 370.599 568.729Z" fill="#332A7C"/>
<path fill-rule="evenodd" clip-rule="evenodd" d="M332.347 422.636C331.019 422.187 329.842 422.551 327.28 426.438C324.718 430.326 319.508 440.47 327.387 458.739C329.935 466.707 326.373 474.211 326.937 480.282C327.123 482.315 328.629 483.863 330.084 485.011C330.084 485.011 346.163 492.837 356.255 483.463C356.94 481.437 356.112 478.02 354.378 475.809C349.874 470.059 351.809 457.918 352.187 449.586C352.372 445.52 350.852 435.22 344.358 428.129C344.358 428.129 343.287 427.209 342.652 426.959C340.104 425.967 335.387 423.535 332.347 422.636Z" fill="#FFA000"/>
<path fill-rule="evenodd" clip-rule="evenodd" d="M334.54 430.683C331.379 431.66 330.951 435.776 330.701 438.793C329.338 455.329 362.759 472.827 332.692 478.263C332.692 478.263 339.429 478.299 346.059 475.702C340.364 480.396 335.347 482.828 328.367 483.392L330.094 485.018L330.108 485.025H330.116L330.144 485.04C331.093 485.489 346.494 492.544 356.264 483.463C356.95 481.437 356.122 478.02 354.387 475.809C352.81 473.797 352.025 471.001 351.683 467.862C351.583 467.613 351.504 467.399 351.476 467.227C334.255 464.531 344.032 427.751 334.54 430.683Z" fill="#FF7200"/>
<path fill-rule="evenodd" clip-rule="evenodd" d="M346.238 420.81C346.238 420.81 341.613 427.152 344.661 429.691C344.889 433.743 333.349 425.903 331.465 423.007C331.465 423.007 332.514 422.843 332.699 422.13C332.699 422.13 334.198 418.349 333.413 414.468L336.218 415.025L346.238 420.81Z" fill="#FCB054"/>
<path fill-rule="evenodd" clip-rule="evenodd" d="M351.091 411.836C350.834 413.548 352.418 416.915 352.333 417.486C352.254 418.035 349.906 417.579 349.735 417.971C348.843 419.997 348.75 420.125 347.558 423.906C346.902 425.989 338.024 421.488 336.725 419.933C335.076 418.206 334.698 416.808 334.591 415.175C334.57 414.889 334.206 415.331 333.792 415.003C329.06 411.237 330.459 407.064 331.658 405.017C331.658 405.017 335.376 397.441 342.149 398.233C342.149 398.233 350.085 397.876 350.891 401.856C353.004 405.723 351.812 408.94 351.091 411.836Z" fill="#FDCB90"/>
<path fill-rule="evenodd" clip-rule="evenodd" d="M359.018 404.539C352.067 404.995 346.258 382.189 329.701 397.127C323.984 397.533 325.583 409.775 330.279 414.183C330.279 414.183 331.906 418.791 333.397 420.724C333.476 418.97 333.997 417.279 334.318 415.117C331.185 412.949 329.943 406.029 334.19 408.02C334.19 408.02 335.489 411.251 335.503 413.634C335.503 413.634 338.065 407.891 337.694 405.83C337.701 405.815 356.763 410.709 359.018 404.539Z" fill="#221E54"/>
<path fill-rule="evenodd" clip-rule="evenodd" d="M363.828 583.21C367.831 583.253 370.372 582.754 374.668 583.16C386.437 584.295 388.378 583.089 387.942 579.736C387.942 578.752 374.761 574.393 370.029 569.621C369.437 569.022 367.239 569.778 366.797 570.577C366.433 571.24 366.468 572.232 366.625 572.746C364.705 573.459 361.787 572.631 360.031 572.225C359.153 572.025 359.003 573.63 358.953 575.528C358.825 580.935 358.368 583.146 363.828 583.21Z" fill="#1A1840"/>
<path fill-rule="evenodd" clip-rule="evenodd" d="M323.281 579.679C327.227 580.35 329.818 580.243 333.993 581.32C345.44 584.273 347.545 583.389 347.638 580.008C347.795 579.037 335.449 572.674 331.523 567.224C331.031 566.54 328.74 566.939 328.183 567.667C327.72 568.266 327.605 569.25 327.67 569.785C325.664 570.192 322.909 568.915 321.239 568.244C320.404 567.909 320.005 569.471 319.662 571.34C318.699 576.662 317.9 578.773 323.281 579.679Z" fill="#1A1840"/>
<path fill-rule="evenodd" clip-rule="evenodd" d="M352.224 457.483C353.166 457.376 354.023 458.054 354.13 458.995C354.237 459.937 353.559 460.793 352.617 460.9C316.869 465.037 303.745 488.549 290.842 511.655C268.497 551.666 246.823 590.487 116.65 532.591C108.086 528.782 93.6344 526.342 79.8393 528.625C69.5981 530.323 59.7637 534.631 53.0981 542.956C52.5058 543.698 51.4281 543.819 50.6859 543.227C49.9437 542.635 49.8224 541.558 50.4147 540.816C57.687 531.735 68.285 527.056 79.2826 525.237C93.7557 522.84 108.985 525.429 118.049 529.46C245.353 586.078 266.27 548.613 287.837 509.993C301.161 486.117 314.728 461.82 352.224 457.483Z" fill="#221E54"/>
<path fill-rule="evenodd" clip-rule="evenodd" d="M427.145 427.993L394.916 435.676C394.609 435.748 394.416 436.061 394.488 436.368L395.108 438.958C395.18 439.264 395.494 439.457 395.801 439.386L428.03 431.703C428.337 431.632 428.529 431.318 428.458 431.011L427.837 428.421C427.766 428.115 427.459 427.922 427.145 427.993Z" fill="#FFDE05"/>
<path fill-rule="evenodd" clip-rule="evenodd" d="M432.575 450.735L400.345 458.418C400.039 458.489 399.846 458.803 399.917 459.11L400.538 461.699C400.609 462.006 400.924 462.198 401.23 462.127L433.46 454.444C433.766 454.373 433.959 454.059 433.888 453.752L433.267 451.163C433.196 450.856 432.881 450.664 432.575 450.735Z" fill="#FFDE05"/>
<path fill-rule="evenodd" clip-rule="evenodd" d="M399.163 416.273L388.365 418.848C387.08 419.155 386.274 420.461 386.581 421.745L400.083 478.327C400.39 479.611 401.696 480.417 402.981 480.11L413.779 477.535C415.063 477.229 415.87 475.923 415.563 474.639L402.06 418.057C401.753 416.773 400.447 415.966 399.163 416.273Z" fill="#FF5668"/>
<path fill-rule="evenodd" clip-rule="evenodd" d="M369.548 426.766L386.804 422.65L399.871 477.414L382.615 481.53C367.549 485.125 352.284 475.738 348.687 460.679C345.098 445.62 354.482 430.362 369.548 426.766Z" fill="#332A7C"/>
<path fill-rule="evenodd" clip-rule="evenodd" d="M397.172 466.1L400.091 478.327C400.398 479.611 401.704 480.417 402.988 480.111L413.786 477.535C415.071 477.229 415.877 475.923 415.57 474.639L412.651 462.412L397.172 466.1Z" fill="#F72D41"/>
<path fill-rule="evenodd" clip-rule="evenodd" d="M397.171 466.1L399.869 477.414L382.612 481.53C373.542 483.691 364.392 481.152 357.77 475.495L397.171 466.1Z" fill="#262061"/>
<path fill-rule="evenodd" clip-rule="evenodd" d="M367.448 465.144C358.963 461.456 349.963 459.566 342.869 457.854C342.541 454.601 341.827 451.548 340.65 447.789L330.559 449.943C331.08 453.909 333.156 458.453 333.82 462.862C342.57 469.696 361.582 465.886 367.384 470.009C372.515 471.693 375.113 471.907 378.51 469.795C382.364 467.399 381.65 465.629 381.029 464.938C380.116 464.117 379.366 465.537 374.492 465.715C374.449 465.715 373.093 465.437 373.107 464.752C373.122 464.139 375.234 462.812 375.206 462.455C375.077 460.615 368.797 464.987 368.783 464.966C368.504 464.973 368.397 465.337 367.448 465.144Z" fill="#FCB054"/>
<path fill-rule="evenodd" clip-rule="evenodd" d="M367.447 465.144C358.962 461.456 349.963 459.566 342.869 457.854C342.54 454.601 341.827 451.548 340.649 447.789L332.656 449.494C333.391 453.125 335.104 457.162 335.696 461.078C344.446 467.912 363.458 464.103 369.26 468.226C374.391 469.91 376.989 470.124 380.386 468.012C380.629 467.862 380.857 467.712 381.064 467.563C381.899 466.307 381.45 465.38 381.043 464.93C380.129 464.11 379.38 465.53 374.506 465.708C374.463 465.708 373.107 465.43 373.121 464.745C373.135 464.21 374.741 463.133 375.134 462.626L375.162 462.591C375.205 462.534 375.226 462.484 375.219 462.448C375.091 460.608 368.811 464.98 368.796 464.959C368.504 464.973 368.397 465.337 367.447 465.144Z" fill="#FDCB90"/>
<path fill-rule="evenodd" clip-rule="evenodd" d="M340.99 444.429L342.089 453.01C338.878 454.387 334.988 454.986 331.505 454.986L328.722 445.007C324.369 427.872 340.904 417.471 340.99 444.429Z" fill="#FFA715"/>
<path fill-rule="evenodd" clip-rule="evenodd" d="M591.072 564.485C591.072 564.485 594.048 570.869 593.399 572.553C593.149 573.209 593.306 577.282 593.356 579.073C593.377 579.836 592.692 579.515 592.549 579.665C592.186 580.057 591.343 575.371 591.343 575.371C591.343 575.371 588.824 572.867 585.484 581.705C582.544 583.681 574.722 583.489 572.053 582.483C571.496 581.677 571.418 578.795 573.309 578.709C575.058 578.631 578.99 577.967 579.504 573.495C579.504 573.495 580.189 570.37 583.058 567.182C583.058 567.182 585.199 565.377 586.141 566.054C587.076 566.725 591.072 564.485 591.072 564.485Z" fill="#1A1840"/>
<path fill-rule="evenodd" clip-rule="evenodd" d="M552.863 480.246L559.222 526.728C562.969 535.887 576.036 551.331 583.315 566.832C587.248 567.074 591.401 566.062 592.957 564.863C583.151 551.238 580.446 531.058 571.483 524.937C568.307 513.117 581.738 483.513 572.91 476.151L552.863 480.246Z" fill="#332A7C"/>
<path fill-rule="evenodd" clip-rule="evenodd" d="M552.863 480.246L559.222 526.728C562.969 535.887 576.036 551.331 583.315 566.832C585.007 566.939 586.741 566.81 588.29 566.532C583.765 555.668 563.839 525.422 563.839 525.422C561.292 520.472 563.047 493.643 564.346 477.899L552.863 480.246Z" fill="#2B2468"/>
<path fill-rule="evenodd" clip-rule="evenodd" d="M546.702 568.908C546.702 568.908 545.411 577.018 543.898 577.996C543.305 578.381 542.042 581.769 541.022 583.246C540.586 583.874 540.087 583.396 539.887 583.439C539.366 583.538 540.572 579.059 540.572 579.059C540.572 579.059 540.229 575.913 532.429 582.262C528.754 583.852 520.696 582.725 519.676 578.41C519.676 578.41 519.726 576.697 522.102 575.528C523.808 575.478 528.903 575.235 532.864 570.591C532.864 570.591 534.499 568.465 538.688 567.574C538.688 567.574 541.064 566.81 541.428 567.909C541.799 569.008 546.702 568.908 546.702 568.908Z" fill="#1A1840"/>
<path fill-rule="evenodd" clip-rule="evenodd" d="M537.203 568.052C537.203 568.052 548.929 570.884 548.351 568.815C545.068 557.109 556.565 539.111 552.454 524.851C551.148 520.307 559.077 506.839 565.022 497.744C568.676 492.152 572.48 486.045 568.126 476.451L548.308 481.43C543.569 489.947 540.365 512.033 540.829 524.516C541.057 530.622 539.851 553.157 537.203 568.052Z" fill="#332A7C"/>
<path fill-rule="evenodd" clip-rule="evenodd" d="M537.203 568.052C537.203 568.052 539.009 568.487 541.164 568.893C548.558 527.198 544.647 518.524 544.647 518.524C545.91 501.175 553.282 486.759 558.149 478.962L548.308 481.437C543.569 489.955 540.365 512.04 540.829 524.523C541.057 530.622 539.851 553.157 537.203 568.052Z" fill="#2B2468"/>
<path fill-rule="evenodd" clip-rule="evenodd" d="M570.081 419.733C571.459 419.141 572.237 419.662 575.306 423.606C578.117 427.223 582.977 433.707 578.339 450.343C570.467 478.584 578.66 468.026 578.481 480.346C578.453 482.536 576.968 484.319 575.512 485.66C575.512 485.66 553.96 489.484 547.836 481.658C546.937 479.554 548.75 474.289 550.413 471.786C554.745 465.266 553.617 460.408 552.911 451.491C552.747 449.422 545.21 444.243 548.914 438.13C551.398 434.028 555.059 430.968 558.413 426.988C558.413 426.988 559.484 425.91 560.14 425.597C562.788 424.327 566.906 420.946 570.081 419.733Z" fill="#3EA5EC"/>
<path fill-rule="evenodd" clip-rule="evenodd" d="M553.177 454.594C553.398 453.217 553.798 451.826 554.226 450.578C554.889 448.616 559.214 447.874 560.121 446.02C560.52 445.192 560.948 444.343 561.398 443.537C562.54 439.564 564.303 434.677 566.958 431.474C568.485 429.634 570.669 428.008 573.145 428.564C576.428 429.306 576.635 432.965 577.12 436.004C577.498 451.305 538.111 466.229 573.516 477.45C573.516 477.45 566.679 478.013 559.742 475.909C565.823 480.175 571.054 482.243 578.055 482.315C577.506 483.627 576.506 484.74 575.514 485.66C570.012 487.344 550.814 487.572 547.838 481.658C547.103 478.855 548.638 474.832 550.115 472.271C554.147 466.386 553.848 461.956 553.177 454.594Z" fill="#338FD6"/>
<path fill-rule="evenodd" clip-rule="evenodd" d="M559.128 419.469C559.128 419.469 562.896 425.383 558.664 428.621C558.3 432.78 570.418 425.104 572.452 422.187C570.033 421.723 568.984 415.938 569.455 413.912L567.828 413.833L559.128 419.469Z" fill="#FDCB90"/>
<path fill-rule="evenodd" clip-rule="evenodd" d="M569.288 408.177C569.288 408.177 558.783 399.752 564.493 395.914C562.109 382.425 599.626 385.442 589.25 416.501C588.093 419.968 586.145 432.673 594.381 431.589C590.484 440.876 566.27 435.976 569.288 408.177Z" fill="#221E54"/>
<path fill-rule="evenodd" clip-rule="evenodd" d="M570.661 393.731C568.185 392.091 564.945 392.619 563.432 394.908C561.912 397.198 562.697 400.38 565.173 402.021C567.649 403.661 570.889 403.133 572.402 400.843C573.915 398.561 573.138 395.372 570.661 393.731Z" fill="#F20010"/>
<path fill-rule="evenodd" clip-rule="evenodd" d="M569.474 394.402C566.513 392.44 562.809 392.811 561.21 395.222C559.612 397.641 560.711 401.193 563.679 403.155C566.641 405.116 570.345 404.745 571.944 402.334C573.542 399.916 572.436 396.364 569.474 394.402Z" fill="#FB394B"/>
<path fill-rule="evenodd" clip-rule="evenodd" d="M552.656 410.06C552.863 411.829 551.129 415.232 551.193 415.824C551.257 416.387 553.684 416.002 553.848 416.409C554.697 418.52 554.783 418.656 555.889 422.586C556.56 424.976 568.178 419.084 569.541 413.912C569.613 413.634 569.891 414.333 570.334 413.898C573.11 411.187 575.608 404.781 571.347 405.459C571.347 405.459 569.285 395.793 562.298 396.385C562.298 396.385 554.155 395.757 553.191 399.816C550.893 403.718 552.007 407.057 552.656 410.06Z" fill="#FDDDB6"/>
<path fill-rule="evenodd" clip-rule="evenodd" d="M550.8 409.803C555.496 409.689 560.685 406.543 562.105 402.341C562.333 405.345 565.83 408.376 569.249 408.391L568.735 414.804L571.169 407.528C578.848 388.374 548.11 388.403 549.866 405.116L550.8 409.803Z" fill="#2B2468"/>
<path fill-rule="evenodd" clip-rule="evenodd" d="M546.94 459.88C546.005 459.723 545.37 458.831 545.534 457.897C545.691 456.962 546.583 456.328 547.518 456.492C600.35 465.694 618.934 495.262 635.812 522.105C655.688 553.728 673.123 581.47 744.233 565.298C752.576 563.401 757.557 560.176 761.66 557.523C769.546 552.422 774.464 549.241 790.878 558.814C794.803 561.104 800.712 557.937 805.415 555.418C808.513 553.756 811.167 552.337 813.187 552.522C814.129 552.608 814.829 553.442 814.743 554.384C814.657 555.326 813.822 556.025 812.88 555.939C811.881 555.846 809.647 557.045 807.035 558.443C801.583 561.361 794.725 565.027 789.158 561.781C774.556 553.271 770.324 556.011 763.537 560.398C759.206 563.201 753.932 566.611 744.996 568.644C671.517 585.358 653.476 556.653 632.908 523.931C616.415 497.702 598.259 468.811 546.94 459.88Z" fill="#221E54"/>
<path fill-rule="evenodd" clip-rule="evenodd" d="M503.137 414.19L513.935 416.765C515.22 417.072 516.026 418.378 515.719 419.662L502.217 476.244C501.91 477.528 500.604 478.334 499.319 478.027L488.521 475.452C487.237 475.146 486.43 473.84 486.737 472.556L500.24 415.974C500.547 414.682 501.845 413.883 503.137 414.19Z" fill="#FF5668"/>
<path fill-rule="evenodd" clip-rule="evenodd" d="M532.746 424.683L515.489 420.568L502.422 475.331L519.678 479.447C534.744 483.042 550.009 473.655 553.606 458.596C557.203 443.537 547.818 428.279 532.746 424.683Z" fill="#332A7C"/>
<path fill-rule="evenodd" clip-rule="evenodd" d="M505.128 464.017L502.209 476.244C501.902 477.528 500.596 478.334 499.311 478.027L488.513 475.452C487.229 475.146 486.422 473.84 486.729 472.556L489.648 460.329L505.128 464.017Z" fill="#F72D41"/>
<path fill-rule="evenodd" clip-rule="evenodd" d="M505.123 464.017L502.426 475.331L519.682 479.447C528.753 481.609 537.902 479.069 544.525 473.412L505.123 464.017Z" fill="#262061"/>
<path fill-rule="evenodd" clip-rule="evenodd" d="M537.107 468.347C545.393 463.761 554.378 460.943 561.429 458.503C561.443 455.15 561.871 451.976 562.699 448.031L573.19 449.23C573.047 453.324 571.377 458.161 571.135 462.712C562.892 470.53 543.145 468.519 537.642 473.291C532.575 475.509 530.998 475.887 527.337 474.068C523.169 472.007 523.726 470.131 524.29 469.36C525.139 468.44 524.996 469.91 529.978 469.61C530.028 469.61 531.376 469.189 531.291 468.49C531.219 467.869 528.936 466.721 528.928 466.35C528.878 464.467 535.708 468.297 535.715 468.283C536.015 468.276 536.158 468.64 537.107 468.347Z" fill="#FDDDB6"/>
<path fill-rule="evenodd" clip-rule="evenodd" d="M562.032 444.643L561.754 453.496C565.165 454.587 569.183 454.808 572.73 454.473L574.586 444.029C577.333 426.139 559.463 417.172 562.032 444.643Z" fill="#6BB9F1"/>
<path fill-rule="evenodd" clip-rule="evenodd" d="M236.116 247.374C236.116 247.374 234.018 251.547 234.418 253.238C234.817 254.929 236.744 256.484 236.744 256.484C236.744 256.484 238.229 255.264 240.284 264.152C240.284 264.152 239.663 267.94 245.922 269.909C245.922 269.909 248.82 271.756 251.353 269.802C251.353 269.802 252.466 268.575 251.589 266.171C251.589 266.171 248.206 261.762 248.313 256.227C248.313 256.227 248.063 253.152 245.737 249.728C245.737 249.728 245.016 247.096 244.181 246.711C243.867 246.568 239.992 246.518 239.563 246.675C239.178 246.811 240.056 246.547 238.757 246.746C237.265 246.975 236.138 247.396 236.116 247.374Z" fill="#1A1840"/>
<path fill-rule="evenodd" clip-rule="evenodd" d="M260.74 235.889C260.74 235.889 259.883 240.833 260.754 242.103C261.625 243.372 263.708 244.05 263.708 244.05C263.708 244.05 264.551 242.573 269.068 249.264C269.068 249.264 269.76 252.589 275.555 252.232C275.555 252.232 278.539 252.838 280.009 250.42C280.009 250.42 280.537 249.058 279.052 247.346C279.052 247.346 274.849 244.778 273.186 240.169C273.186 240.169 272.001 237.708 268.99 235.618C268.99 235.618 266.856 234.541 266.206 235.283C265.557 236.025 260.74 235.889 260.74 235.889Z" fill="#1A1840"/>
<path fill-rule="evenodd" clip-rule="evenodd" d="M236.156 180.234L260.728 189.679C266.366 191.847 268.428 196.07 268.664 202.412C269.035 212.292 268.614 225.082 270.291 234.819C270.291 234.819 263.34 237.694 258.865 237.266C258.865 237.266 255.068 213.54 255.068 207.584C255.068 207.584 255.175 203.111 255.389 202.155L232.431 196.834L222.418 181.311L236.156 180.234Z" fill="#221E54"/>
<path fill-rule="evenodd" clip-rule="evenodd" d="M204.731 183.744C204.731 183.744 203.525 198.353 215.978 201.97L240.835 210.337C240.835 210.337 234.662 219.597 234.769 247.046C234.769 247.046 241.792 250.556 245.517 249.6C245.517 249.6 250.877 216.237 253.753 211.657C255.894 204.345 251.191 201.535 246.48 198.168L226.569 185.335L225.185 181.183L206.394 178.408L204.731 183.744Z" fill="#332A7C"/>
<path fill-rule="evenodd" clip-rule="evenodd" d="M263.932 147.406C266.63 145.244 269.856 146.165 270.783 146.707C274.287 148.747 277.078 144.667 278.184 144.303C279.954 146.593 272.525 155.709 265.731 151.807C262.127 152.257 253.149 165.546 244.97 164.576C242.722 162.45 227.585 141.642 227.721 138.689C227.592 131.384 233.865 131.32 236.87 134.266C237.619 135.065 245.213 152.628 247.568 156.522C250.915 152.949 258.23 151.158 263.932 147.406Z" fill="#FDDDB6"/>
<path fill-rule="evenodd" clip-rule="evenodd" d="M227.714 134.658C226.351 130.385 233.673 125.727 237.748 132.868C239.817 136.492 243.114 146.229 247.382 156.38C249.252 153.79 253.049 152.399 262.169 148.347C263.226 149.845 263.768 152.813 263.754 154.839C263.754 154.839 250.18 166.481 244.413 164.526C236.956 156.351 229.469 144.067 227.714 134.658Z" fill="#F61D2D"/>
<path fill-rule="evenodd" clip-rule="evenodd" d="M227.394 128.21C236.164 129.793 240.446 138.846 235.073 165.675C235.073 165.675 238.834 181.903 234.808 183.18L222.212 183.908C215.697 184.55 203.493 184.486 206.076 174.563C209.331 162.079 206.99 139.538 207.04 132.461C207.425 128.93 215.789 125.292 218.301 126.048C222.705 125.67 223.104 127.989 227.394 128.21Z" fill="#FB394B"/>
<path fill-rule="evenodd" clip-rule="evenodd" d="M213.087 157.079C216.027 161.352 221.408 168.193 233.847 172.701C225.197 170.597 217.882 166.302 212.137 161.074L207.813 155.752C207.813 151.158 207.627 146.6 207.441 142.641L210.546 128.417C224.384 131.484 206.114 149.788 213.087 157.079Z" fill="#F61D2D"/>
<path fill-rule="evenodd" clip-rule="evenodd" d="M231.085 126.676C231.085 126.676 228.879 129.094 230.371 131.627C230.371 131.627 230.428 135.236 225.596 134.744C223.013 134.444 216.968 129.922 217.332 126.562C217.332 126.562 218.445 126.555 218.752 125.856C218.752 125.856 219.937 122.103 219.159 117.93L231.085 126.676Z" fill="#FCC483"/>
<path fill-rule="evenodd" clip-rule="evenodd" d="M179.439 142.363C177.006 139.951 173.737 140.522 172.767 140.964C169.098 142.612 166.779 138.304 165.723 137.826C163.739 139.901 170.112 149.646 177.213 146.514C180.717 147.327 188.182 161.352 196.339 161.245C198.773 159.39 215.851 140.451 216.022 137.526C216.907 130.343 210.734 129.629 207.472 132.219C206.651 132.925 197.352 149.439 194.626 153.041C191.686 149.168 184.663 146.65 179.439 142.363Z" fill="#FDDDB6"/>
<path fill-rule="evenodd" clip-rule="evenodd" d="M216.771 135.814C218.555 131.748 211.497 124.144 206.744 130.764C204.332 134.116 200.064 143.368 194.812 152.927C193.235 150.181 189.645 148.419 181.081 143.483C179.889 144.845 179.04 147.72 178.84 149.71C178.84 149.71 191.008 162.593 196.888 161.266C205.081 153.976 214.066 144.902 216.771 135.814Z" fill="#FF5668"/>
<path fill-rule="evenodd" clip-rule="evenodd" d="M218.637 185.912L225.11 189.7L267.33 188.345L260.979 184.935L218.637 185.912Z" fill="#A8D3F7"/>
<path fill-rule="evenodd" clip-rule="evenodd" d="M218.636 185.912L225.101 189.493L225.173 191.797L219.128 187.567C218.793 187.332 218.614 186.975 218.621 186.569L218.636 185.912Z" fill="#C5E0FB"/>
<path fill-rule="evenodd" clip-rule="evenodd" d="M267.321 188.138L225.094 189.493L225.165 191.797L266.208 190.485C266.858 190.463 267.371 189.914 267.35 189.265L267.321 188.138Z" fill="white"/>
<path fill-rule="evenodd" clip-rule="evenodd" d="M233.88 160.574L223.824 188.951L225.109 189.707L236.87 158.955L235.942 158.998C234.979 159.041 234.201 159.661 233.88 160.574Z" fill="#C5E0FB"/>
<path fill-rule="evenodd" clip-rule="evenodd" d="M274.857 158.099L236.526 158.962C235.934 158.976 235.442 159.34 235.242 159.897L224.801 189.715L267.478 188.345L276.22 159.897C276.356 159.461 276.278 159.012 275.999 158.648C275.721 158.284 275.321 158.092 274.857 158.099Z" fill="#8AC6F4"/>
<path fill-rule="evenodd" clip-rule="evenodd" d="M274.869 158.306L236.538 159.169C236.039 159.183 235.618 159.483 235.446 159.961L225.105 189.493L267.333 188.138L276.033 159.832C276.147 159.454 276.083 159.083 275.847 158.77C275.604 158.463 275.262 158.299 274.869 158.306Z" fill="white"/>
<path fill-rule="evenodd" clip-rule="evenodd" d="M238.838 117.567C238.838 117.567 237.103 123.659 236.354 126.619C236.354 126.619 235.555 129.337 231.351 132.29C228.818 134.073 220.739 127.083 220.296 123.808C220.296 123.808 215.058 113.165 217.149 109.427C217.149 109.427 218.855 102.643 227.183 103.435C227.183 103.435 236.911 102.786 238.003 107.651C240.7 112.345 239.651 113.993 238.838 117.567Z" fill="#FDDDB6"/>
<path fill-rule="evenodd" clip-rule="evenodd" d="M246.138 106.631C242.056 110.804 239.336 105.376 237.681 102.508C234.526 97.0437 221.559 95.5599 220.339 100.332C213.195 100.889 213.473 110.319 215.843 115.191C217.213 118.009 218.191 119.215 218.904 122.246L219.354 119.814C217.327 119.942 216.799 110.904 219.546 113.308C219.447 114.799 218.84 115.776 219.468 118.137L220.624 117.98C220.553 116.589 220.567 114.934 220.86 113.971C221.331 113.8 223.079 112.352 222.658 109.499C226.555 112.687 246.195 118.358 246.138 106.631Z" fill="#221E54"/>
<path fill-rule="evenodd" clip-rule="evenodd" d="M235.243 123.067C233.566 122.225 233.031 120.605 231.047 121.426C229.256 119.728 225.709 122.817 224.367 123.345C220.677 123.544 221.098 117.189 219.778 115.883C219.207 120.877 218.308 121.29 221.091 126.348C223.175 130.072 225.33 130.614 227.193 132.147C227.664 132.533 231.225 133.182 231.711 132.711C233.773 130.735 234.373 130.007 236.249 127.318C237.663 124.308 238.819 120.762 238.719 118.401C238.034 120.227 237.713 123.68 235.243 123.067ZM228.328 123.93C230.818 122.467 231.939 123.88 233.095 124.429C233.559 124.65 235.093 125.028 235.493 125.078C233.937 127.311 232.467 128.417 231.104 128.723C228.749 129.251 226.715 127.404 225.152 124.893C225.338 124.886 225.837 124.743 226.394 124.572C227.293 124.286 228.328 123.93 228.328 123.93Z" fill="#221E54"/>
<path fill-rule="evenodd" clip-rule="evenodd" d="M223.003 115.812C223.011 115.819 223.018 115.826 223.032 115.833C223.746 116.375 222.254 119.05 226.736 119.364C228.677 119.5 229.698 119.008 230.69 117.403C230.932 117.003 230.997 116.618 231.582 116.675C232.738 116.796 232.003 119.657 235.914 120.128C236.934 120.249 238.412 120.178 239.147 119.343C239.732 118.679 239.703 117.752 240.046 117.367C240.153 117.246 240.296 117.196 240.453 117.174L240.588 117.153L240.602 115.99L240.474 115.962C238.247 115.455 235.971 115.213 233.687 115.37C233.059 115.412 232.224 115.519 231.61 115.462C230.982 115.398 230.183 115.156 229.562 115.006C227.264 114.464 225.23 114.421 222.889 114.542L222.754 114.549L222.739 114.685C222.689 115.134 222.475 115.498 222.896 115.755C222.925 115.776 222.961 115.798 223.003 115.812ZM237.034 115.983C237.698 116.09 238.54 116.14 238.904 116.782C239.161 117.239 239.068 118.08 238.868 118.544C238.083 120.349 234.572 119.799 233.523 118.394C233.223 118.002 232.938 117.267 232.966 116.768C233.038 115.591 236.292 115.869 237.034 115.983ZM227.999 115.255C229.562 115.527 230.804 115.848 229.748 117.574C228.948 118.872 227.371 118.951 226.008 118.751C225.38 118.658 224.688 118.48 224.331 117.909C224.017 117.395 224.017 116.696 224.088 116.119C224.181 115.384 224.631 115.206 225.316 115.127C226.079 115.049 227.228 115.127 227.999 115.255Z" fill="#1A1840"/>
<path fill-rule="evenodd" clip-rule="evenodd" d="M814.517 239.263C814.517 239.263 816.443 243.914 815.872 245.348C815.651 245.912 816.451 248.908 816.472 250.442C816.486 251.098 815.894 251.012 815.773 251.134C815.459 251.462 814.081 247.738 814.081 247.738C814.081 247.738 812.932 246.475 809.985 254.015C809.985 254.015 810.042 257.418 804.29 258.345C804.29 258.345 801.506 259.594 799.537 257.546C799.537 257.546 798.723 256.327 799.801 254.329C799.801 254.329 803.34 250.898 803.961 246.019C803.961 246.019 804.582 243.351 807.066 240.647C807.066 240.647 808.914 239.121 809.714 239.713C810.513 240.305 814.517 239.263 814.517 239.263Z" fill="#1A1840"/>
<path fill-rule="evenodd" clip-rule="evenodd" d="M838.713 247.146C838.713 247.146 842.382 251.911 842.646 253.587C842.71 254.001 842.653 254.429 842.532 254.836C842.403 255.278 842.867 258.274 843.231 259.815C843.388 260.486 842.846 260.364 842.753 260.493C842.432 260.956 841.083 257.268 841.083 257.268C841.083 257.268 840.405 256.241 840.355 265.386C840.355 265.386 841.796 268.953 836.109 272.256C836.109 272.256 833.682 274.703 830.77 273.347C830.77 273.347 829.414 272.391 829.743 269.845C829.743 269.845 832.083 264.787 830.756 259.401C830.756 259.401 830.328 256.334 831.848 252.475C831.848 252.475 831.976 249.743 832.704 249.179C834.802 247.567 837.586 249.443 838.713 247.146Z" fill="#1A1840"/>
<path fill-rule="evenodd" clip-rule="evenodd" d="M833.641 182.196L810.525 194.23C805.223 196.991 803.667 201.378 804.138 207.634C804.873 217.392 808.227 230.482 807.664 240.241C807.664 240.241 810.697 240.897 815.05 239.977C815.05 239.977 816.799 218.298 816.135 212.435C816.135 212.435 815.3 207.284 814.986 206.364L839.165 198.111L847.279 181.725L833.641 182.196Z" fill="#FB394B"/>
<path fill-rule="evenodd" clip-rule="evenodd" d="M811.419 240.441C812.468 240.391 813.695 240.262 815.051 239.977C815.051 239.977 816.8 218.298 816.136 212.435C816.136 212.435 815.301 207.284 814.987 206.364L839.166 198.111L847.28 181.725L846.388 181.754C834.755 191.312 821.546 200.557 810.313 204.752C810.305 204.752 813.224 226.224 811.419 240.441Z" fill="#F20010"/>
<path fill-rule="evenodd" clip-rule="evenodd" d="M855.906 201.328L830.971 212.563C830.971 212.563 836.38 218.79 839.271 247.11C838.742 248.43 835.931 251.997 832.163 251.469C832.163 251.469 823.163 219.247 819.83 215.067C816.911 208.112 821.222 204.83 825.483 200.985L843.638 186.141L844.538 181.903L860.738 175.64C867.289 182.717 868.988 193.795 855.906 201.328Z" fill="#FB394B"/>
<path fill-rule="evenodd" clip-rule="evenodd" d="M855.906 201.328L830.971 212.563C830.971 212.563 836.38 218.79 839.271 247.11C838.971 247.859 837.929 249.336 836.402 250.377C835.224 234.648 827.331 211.5 827.031 210.245C832.27 208.254 850.561 200.878 858.011 193.724C863.328 188.616 862.094 182.025 858.397 176.553L860.731 175.647C867.289 182.717 868.988 193.795 855.906 201.328Z" fill="#F20010"/>
<path fill-rule="evenodd" clip-rule="evenodd" d="M820.023 134.773C821.13 132.604 822.543 130.756 821.608 128.488C822.892 127.461 821.786 125.599 820.937 124.657C820.566 124.158 817.711 123.138 815.613 125.463C814.179 126.904 812.858 128.645 815.527 134.28C816.034 142.17 812.473 148.233 816.091 156.808C822.036 158.441 833.497 151.08 836.081 150.58C845.423 148.091 844.509 142.42 841.048 139.003C840.113 138.147 827.424 146.243 820.687 150.316C821.336 146.571 819.981 142.498 820.023 134.773Z" fill="#FDDDB6"/>
<path fill-rule="evenodd" clip-rule="evenodd" d="M846.686 136.128C841.69 133.21 834.839 137.027 832.17 139.745C825.618 146.414 825.24 145.936 822.285 149.097L828.558 156.337L843.852 144.396L846.686 136.128Z" fill="#5416CF"/>
<path fill-rule="evenodd" clip-rule="evenodd" d="M843.224 131.584C841.09 135.957 825.468 148.505 833.632 156.451C837.015 159.74 836.359 166.845 835.424 173.522C835.424 173.522 830.871 180.149 834.011 183.551C838.064 185.727 846.842 184.65 851.174 185.042C851.174 185.042 860.552 187.204 863.514 183.08C866.168 179.385 863.942 178.651 863.371 173.35C861.936 160.153 866.768 145.451 866.547 138.075C865.084 135.45 858.154 130.007 856.641 130.585L843.224 131.584Z" fill="#7433EE"/>
<path fill-rule="evenodd" clip-rule="evenodd" d="M861.176 166.973C861.176 166.973 853.925 173.472 850.707 178.693L846.289 182.802L857.308 173.464L866.614 164.433L869.476 152.314L864.295 143.347L861.49 136.263C850.692 149.589 865.422 157.407 861.176 166.973Z" fill="#5416CF"/>
<path fill-rule="evenodd" clip-rule="evenodd" d="M848.648 185.042C847.2 185.584 845.03 185.563 841.79 184.507C841.076 184.272 838.357 180.227 839.999 180.791C840.584 180.99 843.132 181.704 843.988 181.582C844.73 181.482 846.015 181.333 846.3 180.634C846.386 180.42 845.815 178.736 845.016 178.822C844.716 178.857 843.746 178.943 843.453 179.029C843.196 179.1 842.19 178.772 842.411 178.643C842.961 178.315 843.646 177.859 843.902 177.502C844.216 177.067 849.141 177.145 849.633 176.946C853.687 175.312 858.19 169.042 863.171 167.722C862.943 165.161 862.893 162.622 862.6 159.126L871.015 158.306C870.793 161.002 870.123 164.655 870.008 168.664C865.527 175.911 857.89 175.098 852.274 180.491C851.232 181.49 849.433 183.801 848.648 185.042Z" fill="#FDDDB6"/>
<path fill-rule="evenodd" clip-rule="evenodd" d="M862.653 160.724C862.275 154.975 858.379 150.088 858.293 147.078C860.206 121.091 871.531 141.207 871.082 158.684C867 158.898 864.93 159.34 862.653 160.724Z" fill="#844BF0"/>
<path fill-rule="evenodd" clip-rule="evenodd" d="M840.469 130.899C840.469 130.899 842.974 133.182 841.675 135.935C841.675 135.935 843.152 139.466 848.084 138.503C850.717 137.947 856.947 132.64 856.255 129.216C856.255 129.216 855.106 129.316 854.728 128.624C854.728 128.624 853.15 124.871 853.557 120.491L840.469 130.899Z" fill="#FCBE72"/>
<path fill-rule="evenodd" clip-rule="evenodd" d="M837.108 118.872C837.108 118.872 836.559 123.759 836.923 126.434C836.666 128.395 839.706 132.718 841.362 133.225C842.239 133.496 844.88 133.603 850.297 130.093C850.297 130.093 852.552 128.288 853.665 126.391C853.665 126.391 859.689 117.61 858.218 114.121C858.218 114.121 855.899 105.982 848.505 105.861C848.505 105.861 840.027 104.334 838.585 108.5C835.752 112.359 836.744 115.655 837.108 118.872Z" fill="#FDDDB6"/>
<path fill-rule="evenodd" clip-rule="evenodd" d="M848.843 136.513C848.843 136.513 853.539 127.882 853.832 121.618C850.684 122.489 840.936 117.517 840.65 112.851C840.65 112.851 836.761 116.425 837.089 133.253C837.089 133.253 832.058 133.431 831.223 128.417C831.565 119.757 836.639 102.294 847.145 102.986C856.065 103.571 859.527 108.586 860.462 115.534C861.846 125.784 859.149 139.709 848.843 136.513Z" fill="#1A1840"/>
<path fill-rule="evenodd" clip-rule="evenodd" d="M788.584 89.9673C788.906 89.7462 789.348 89.8318 789.562 90.1457L799.817 105.047C800.039 105.368 799.953 105.811 799.639 106.025C799.318 106.246 798.876 106.16 798.661 105.846L788.406 90.9446C788.178 90.6307 788.263 90.1885 788.584 89.9673Z" fill="#1A1840"/>
<path fill-rule="evenodd" clip-rule="evenodd" d="M778.473 102.344C778.637 101.994 779.066 101.845 779.415 102.009L795.751 109.784C796.101 109.948 796.251 110.376 796.086 110.726C795.922 111.075 795.494 111.225 795.145 111.061L778.809 103.285C778.452 103.114 778.302 102.693 778.473 102.344Z" fill="#1A1840"/>
<path fill-rule="evenodd" clip-rule="evenodd" d="M775.912 118.109C775.884 117.724 776.169 117.381 776.562 117.353L794.603 115.926C794.989 115.897 795.331 116.183 795.36 116.575C795.388 116.96 795.103 117.303 794.71 117.331L776.669 118.758C776.283 118.786 775.941 118.494 775.912 118.109Z" fill="#1A1840"/>
<path fill-rule="evenodd" clip-rule="evenodd" d="M826.008 127.354C825.365 128.231 824.637 128.909 823.538 129.522C822.932 129.672 822.239 129.408 821.754 129.266C819.906 130.999 818.05 132.74 816.202 134.473C815.117 133.646 814.339 132.597 814.125 131.434C815.053 129.965 818.057 128.916 819.399 127.211C819.371 126.255 819.349 125.307 819.321 124.351C819.913 124.065 820.805 124.044 821.761 124.322C821.754 125.278 823.446 126.248 826.008 127.354Z" fill="#BCBBE2"/>
<path fill-rule="evenodd" clip-rule="evenodd" d="M826.925 127.696C826.283 128.574 825.555 129.251 824.456 129.872C823.85 130.022 823.157 129.758 822.672 129.615C820.824 131.349 818.968 133.089 817.12 134.823C816.035 133.995 815.257 132.946 815.043 131.784C815.971 130.314 818.968 129.266 820.317 127.561C820.288 126.605 820.267 125.656 820.238 124.7C820.831 124.415 821.723 124.393 822.679 124.672C822.672 125.62 824.356 126.583 826.925 127.696Z" fill="#DCDCF4"/>
<path fill-rule="evenodd" clip-rule="evenodd" d="M814.125 131.441L815.039 131.777C815.174 132.954 816.366 134.238 817.115 134.815L816.202 134.48C815.617 134.045 814.339 132.875 814.125 131.441Z" fill="#9592C5"/>
<path fill-rule="evenodd" clip-rule="evenodd" d="M831.392 120.941L823.877 117.774L820.68 125.364L828.195 128.531C829.979 129.287 832.056 128.438 832.812 126.655L833.276 125.563C834.025 123.773 833.183 121.69 831.392 120.941Z" fill="#F61D2D"/>
<path fill-rule="evenodd" clip-rule="evenodd" d="M822.48 126.184C814.373 123.666 809.435 125.1 802.762 126.705L812.332 104.013C815.85 109.905 818.27 114.442 825.727 118.487C825.72 119.75 825.428 121.191 824.821 122.631C824.207 124.072 823.387 125.292 822.48 126.184Z" fill="#E5E5F7"/>
<path fill-rule="evenodd" clip-rule="evenodd" d="M811.21 102.922C808.406 101.738 803.888 106.096 801.126 112.652C798.364 119.207 798.393 125.485 801.198 126.662C804.002 127.846 808.52 123.487 811.282 116.932C814.051 110.376 814.015 104.099 811.21 102.922Z" fill="#1A1840"/>
<path fill-rule="evenodd" clip-rule="evenodd" d="M811.148 103.072C808.429 101.923 804.012 106.239 801.278 112.716C798.545 119.186 798.545 125.364 801.264 126.512C803.983 127.661 808.408 123.345 811.134 116.868C813.86 110.398 813.867 104.22 811.148 103.072Z" fill="#332A7C"/>
<path fill-rule="evenodd" clip-rule="evenodd" d="M810.616 104.334C808.589 103.478 804.97 107.473 802.537 113.251C800.103 119.029 799.768 124.401 801.795 125.257C803.821 126.113 807.44 122.118 809.873 116.34C812.314 110.562 812.642 105.183 810.616 104.334Z" fill="#C7AEF9"/>
<path fill-rule="evenodd" clip-rule="evenodd" d="M808.757 111.91C808.729 111.896 808.75 111.91 808.75 111.91C808.008 111.61 806.995 112.951 806.217 114.799C805.439 116.646 805.182 118.309 805.917 118.63C805.917 118.63 805.888 118.615 805.924 118.637C805.96 118.651 806.067 118.68 806.138 118.687L808.472 119.257C808.964 118.358 809.442 117.381 809.878 116.354C810.327 115.291 810.698 114.25 811.005 113.237L808.914 112.017C808.857 111.967 808.786 111.924 808.757 111.91Z" fill="#2B2468"/>
<path fill-rule="evenodd" clip-rule="evenodd" d="M808.662 111.874C808.092 111.632 806.993 112.944 806.215 114.799C805.43 116.654 805.258 118.351 805.829 118.594C806.4 118.837 807.499 117.524 808.277 115.669C809.062 113.815 809.233 112.11 808.662 111.874Z" fill="#1A1840"/>
<path fill-rule="evenodd" clip-rule="evenodd" d="M553 152.364H597.547C598.639 152.364 599.538 153.255 599.538 154.354V183.515C599.538 184.607 598.646 185.506 597.547 185.506H573.51L556.896 194.066C556.768 194.13 556.618 194.116 556.511 194.016C556.404 193.916 556.368 193.773 556.425 193.638L559.658 185.499H553.007C551.915 185.499 551.016 184.607 551.016 183.508V154.347C551.009 153.255 551.908 152.364 553 152.364Z" fill="#B7D9F9"/>
<path fill-rule="evenodd" clip-rule="evenodd" d="M570.833 184.022L553.727 192.839C553.534 192.939 553.306 192.91 553.149 192.76C552.985 192.618 552.935 192.389 553.013 192.19L556.26 184.015H549.637C548.417 184.015 547.418 183.016 547.418 181.796V151.707C547.418 150.488 548.417 149.489 549.637 149.489H595.598C596.818 149.489 597.817 150.488 597.817 151.707V181.796C597.817 183.016 596.818 184.015 595.598 184.015H570.833V184.022Z" fill="#217DC5"/>
<path fill-rule="evenodd" clip-rule="evenodd" d="M549.637 149.66H595.598C596.725 149.66 597.653 150.58 597.653 151.714V181.803C597.653 182.93 596.732 183.858 595.598 183.858H570.798L553.655 192.696C553.52 192.768 553.37 192.746 553.263 192.646C553.156 192.546 553.12 192.397 553.17 192.261L556.503 183.865H549.637C548.51 183.865 547.582 182.945 547.582 181.811V151.722C547.582 150.587 548.51 149.66 549.637 149.66Z" fill="white"/>
<path fill-rule="evenodd" clip-rule="evenodd" d="M569.623 170.561V169.398C569.623 168.4 569.837 167.522 570.265 166.78C570.693 166.038 571.478 165.254 572.613 164.419C573.712 163.642 574.433 163 574.782 162.507C575.132 162.015 575.311 161.473 575.311 160.86C575.311 160.182 575.061 159.668 574.554 159.312C574.055 158.955 573.355 158.777 572.456 158.777C570.886 158.777 569.102 159.29 567.096 160.31L565.391 156.879C567.717 155.574 570.194 154.925 572.806 154.925C574.961 154.925 576.674 155.445 577.944 156.473C579.214 157.507 579.842 158.884 579.842 160.61C579.842 161.758 579.585 162.75 579.064 163.585C578.543 164.419 577.551 165.361 576.081 166.402C575.082 167.144 574.44 167.708 574.183 168.093C573.912 168.485 573.783 168.985 573.783 169.612V170.554H569.623V170.561ZM569.123 175.925C569.123 175.048 569.359 174.385 569.83 173.935C570.301 173.486 570.979 173.265 571.878 173.265C572.749 173.265 573.419 173.493 573.897 173.957C574.376 174.413 574.611 175.077 574.611 175.933C574.611 176.76 574.368 177.409 573.89 177.887C573.412 178.365 572.741 178.601 571.885 178.601C571.007 178.601 570.329 178.372 569.851 177.909C569.366 177.423 569.123 176.767 569.123 175.925Z" fill="#631AEC"/>
<path fill-rule="evenodd" clip-rule="evenodd" d="M195.504 73.8813H147.139C145.954 73.8813 144.977 74.8514 144.977 76.0427V107.708C144.977 108.892 145.947 109.87 147.139 109.87H173.238L191.279 119.172C191.415 119.243 191.579 119.222 191.693 119.115C191.807 119.008 191.843 118.851 191.786 118.708L188.275 109.87H195.497C196.682 109.87 197.659 108.899 197.659 107.708V76.0427C197.659 74.8514 196.689 73.8813 195.504 73.8813Z" fill="#B7D9F9"/>
<path fill-rule="evenodd" clip-rule="evenodd" d="M169.504 107.68L188.08 117.253C188.287 117.36 188.537 117.331 188.708 117.167C188.88 117.01 188.937 116.768 188.851 116.547L185.326 107.673H192.519C193.84 107.673 194.924 106.588 194.924 105.269V72.5973C194.924 71.2705 193.84 70.1934 192.519 70.1934H142.62C141.292 70.1934 140.215 71.2776 140.215 72.5973V105.269C140.215 106.595 141.3 107.673 142.62 107.673H169.504V107.68Z" fill="#217DC5"/>
<path fill-rule="evenodd" clip-rule="evenodd" d="M192.521 70.3788H142.621C141.394 70.3788 140.395 71.3775 140.395 72.6044V105.276C140.395 106.503 141.394 107.501 142.621 107.501H169.548L188.16 117.096C188.303 117.167 188.467 117.146 188.588 117.039C188.71 116.932 188.745 116.768 188.688 116.618L185.07 107.501H192.521C193.748 107.501 194.747 106.503 194.747 105.276V72.6044C194.747 71.3775 193.748 70.3788 192.521 70.3788Z" fill="white"/>
<path fill-rule="evenodd" clip-rule="evenodd" d="M164.323 93.0704V91.8077C164.323 90.7234 164.559 89.7747 165.023 88.9686C165.487 88.1697 166.336 87.3065 167.578 86.4006C168.769 85.5517 169.554 84.8597 169.94 84.3247C170.318 83.7897 170.511 83.1976 170.511 82.5342C170.511 81.7995 170.24 81.2359 169.69 80.8579C169.14 80.4655 168.391 80.28 167.413 80.28C165.708 80.28 163.767 80.8365 161.59 81.9493L159.734 78.2256C162.261 76.8061 164.944 76.0999 167.785 76.0999C170.118 76.0999 171.981 76.6634 173.365 77.7833C174.743 78.9033 175.428 80.4013 175.428 82.2703C175.428 83.5186 175.15 84.5958 174.579 85.5017C174.008 86.4077 172.937 87.4278 171.339 88.562C170.254 89.3681 169.562 89.9816 169.276 90.3953C168.983 90.8162 168.841 91.3655 168.841 92.0431V93.0632H164.323V93.0704ZM163.774 98.8912C163.774 97.9354 164.031 97.2149 164.537 96.7298C165.051 96.2447 165.786 95.9951 166.764 95.9951C167.713 95.9951 168.441 96.2447 168.955 96.7441C169.469 97.2434 169.726 97.9568 169.726 98.8841C169.726 99.7758 169.462 100.489 168.941 101.003C168.427 101.516 167.699 101.773 166.764 101.773C165.808 101.773 165.073 101.523 164.559 101.017C164.038 100.518 163.774 99.8043 163.774 98.8912Z" fill="#631AEC"/>
<path fill-rule="evenodd" clip-rule="evenodd" d="M748.782 82.5414H702.751C701.623 82.5414 700.695 83.4688 700.695 84.5959V114.735C700.695 115.862 701.623 116.789 702.751 116.789H727.593L744.764 125.642C744.9 125.713 745.05 125.692 745.157 125.592C745.264 125.492 745.299 125.342 745.249 125.207L741.91 116.796H748.782C749.91 116.796 750.838 115.869 750.838 114.742V84.603C750.838 83.4688 749.91 82.5414 748.782 82.5414Z" fill="#B7D9F9"/>
<path fill-rule="evenodd" clip-rule="evenodd" d="M724.238 114.599L741.916 123.716C742.116 123.816 742.351 123.787 742.516 123.637C742.68 123.487 742.737 123.259 742.651 123.045L739.297 114.599H746.141C747.404 114.599 748.432 113.572 748.432 112.309V81.2146C748.432 79.952 747.404 78.9247 746.141 78.9247H698.646C697.383 78.9247 696.355 79.952 696.355 81.2146V112.309C696.355 113.572 697.383 114.599 698.646 114.599H724.238Z" fill="#217DC5"/>
<path fill-rule="evenodd" clip-rule="evenodd" d="M746.141 79.0959H698.647C697.484 79.0959 696.527 80.0518 696.527 81.2146V112.309C696.527 113.472 697.484 114.428 698.647 114.428H724.275L741.988 123.559C742.124 123.63 742.281 123.609 742.395 123.509C742.509 123.409 742.545 123.252 742.488 123.109L739.041 114.435H746.134C747.298 114.435 748.254 113.479 748.254 112.316V81.2146C748.268 80.0518 747.312 79.0959 746.141 79.0959Z" fill="white"/>
<path fill-rule="evenodd" clip-rule="evenodd" d="M720.359 100.411H724.369L725.212 84.3605H719.523L720.359 100.411ZM725.276 106.032C725.276 105.112 725.026 104.42 724.533 103.949C724.048 103.478 723.327 103.243 722.385 103.243C721.479 103.243 720.772 103.485 720.273 103.963C719.773 104.448 719.523 105.133 719.523 106.032C719.523 106.895 719.773 107.58 720.28 108.079C720.787 108.579 721.486 108.828 722.385 108.828C723.306 108.828 724.02 108.586 724.526 108.101C725.026 107.608 725.276 106.916 725.276 106.032Z" fill="#631AEC"/>
<path fill-rule="evenodd" clip-rule="evenodd" d="M310.632 350.724H268.333C267.291 350.724 266.441 351.573 266.441 352.614V380.306C266.441 381.348 267.291 382.197 268.333 382.197H291.156L306.935 390.329C307.056 390.393 307.199 390.372 307.299 390.279C307.399 390.186 307.434 390.051 307.384 389.922L304.316 382.189H310.632C311.674 382.189 312.523 381.341 312.523 380.299V352.607C312.516 351.573 311.666 350.724 310.632 350.724Z" fill="#B7D9F9"/>
<path fill-rule="evenodd" clip-rule="evenodd" d="M288.07 380.185L304.313 388.56C304.498 388.652 304.712 388.624 304.862 388.488C305.012 388.353 305.062 388.139 304.991 387.946L301.908 380.185H308.195C309.351 380.185 310.301 379.236 310.301 378.081V349.504C310.301 348.348 309.351 347.4 308.195 347.4H264.554C263.398 347.4 262.449 348.348 262.449 349.504V378.074C262.449 379.229 263.398 380.178 264.554 380.178H288.07V380.185Z" fill="#217DC5"/>
<path fill-rule="evenodd" clip-rule="evenodd" d="M308.202 347.557H264.562C263.491 347.557 262.613 348.434 262.613 349.504V378.074C262.613 379.144 263.491 380.021 264.562 380.021H288.113L304.391 388.41C304.52 388.474 304.662 388.453 304.77 388.36C304.877 388.267 304.905 388.125 304.855 387.989L301.687 380.014H308.202C309.273 380.014 310.151 379.136 310.151 378.066V349.504C310.151 348.434 309.273 347.557 308.202 347.557Z" fill="white"/>
<path fill-rule="evenodd" clip-rule="evenodd" d="M284.505 367.145H288.195L288.966 352.393H283.734L284.505 367.145ZM289.023 372.31C289.023 371.468 288.794 370.826 288.345 370.391C287.895 369.956 287.238 369.742 286.368 369.742C285.533 369.742 284.883 369.963 284.427 370.405C283.97 370.847 283.742 371.482 283.742 372.31C283.742 373.101 283.97 373.729 284.434 374.193C284.898 374.649 285.54 374.878 286.368 374.878C287.21 374.878 287.866 374.657 288.33 374.207C288.787 373.758 289.023 373.123 289.023 372.31Z" fill="#631AEC"/>
<path fill-rule="evenodd" clip-rule="evenodd" d="M815.318 552.558C818.786 560.54 818.08 569.271 807.646 572.902L770.514 575.52L750.281 560.455L758.802 557.608L778.707 556.988L802.714 550.546L815.318 552.558Z" fill="#FF5A1F"/>
<path fill-rule="evenodd" clip-rule="evenodd" d="M739.076 560.975C742.516 559.77 759.794 559.349 772.554 561.61C772.554 561.61 795.549 564.528 801.115 563.957C801.115 563.957 804.605 573.031 801.194 577.575C786.514 576.391 762.049 578.117 745.385 578.745C745.385 578.745 732.639 578.067 730.505 570.17C730.505 570.163 729.249 563.051 739.076 560.975Z" fill="#FF7C11"/>
<path fill-rule="evenodd" clip-rule="evenodd" d="M788.656 567.231C788.656 567.231 792.089 565.12 794.052 565.805C796.007 566.497 797.62 568.972 797.62 568.972C797.62 568.972 795.986 570.584 806.291 574.137C806.291 574.137 810.873 573.88 812.421 581.555C812.421 581.555 814.255 585.229 811.608 587.99C811.608 587.99 810.009 589.152 807.262 587.811C807.262 587.811 802.444 583.232 795.857 582.668C795.857 582.668 792.232 581.983 788.456 578.788C788.456 578.788 786.308 576.384 787.05 575.278C787.793 574.179 788.656 567.231 788.656 567.231Z" fill="#1A1840"/>
<path fill-rule="evenodd" clip-rule="evenodd" d="M777.24 498.714C777.24 498.714 770.453 498.115 766.349 512.368C762.902 524.345 765.5 534.945 765.5 534.945C765.5 534.945 760.868 546.673 764.715 546.83L779.93 547.45L777.24 498.714Z" fill="#221E54"/>
<path fill-rule="evenodd" clip-rule="evenodd" d="M780.568 495.84C773.375 498.301 766.709 513.388 776.094 543.926C776.094 543.926 776.479 547.835 780.526 551.274L793.35 553.128C793.35 553.128 815.06 556.981 817.23 552.972C819.72 548.37 815.909 550.054 814.525 544.09C811.064 529.253 809.529 506.319 808.259 497.951C806.232 495.162 797.368 491.98 795.727 492.851L780.568 495.84Z" fill="#332A7C"/>
<path fill-rule="evenodd" clip-rule="evenodd" d="M777.191 495.226C777.191 495.226 780.196 497.851 778.74 501.118C778.74 501.118 780.567 505.234 786.341 503.979C789.424 503.258 796.625 496.867 795.725 492.851C795.725 492.851 794.376 492.993 793.913 492.187C793.913 492.187 791.964 487.807 792.328 482.65L777.191 495.226Z" fill="#FCC483"/>
<path fill-rule="evenodd" clip-rule="evenodd" d="M771.076 484.804C771.076 484.804 773.438 491.11 774.859 493.949C774.859 493.949 776.215 496.439 781.981 498.101C782.252 498.179 782.638 498.279 782.866 498.272C783.944 498.244 786.006 498.058 790.716 492.102C790.716 492.102 792.55 489.241 793.064 486.702C793.064 486.702 796.454 474.639 793.5 471.301C793.5 471.301 788.069 465.18 779.783 467.841C779.783 467.841 769.756 469.346 769.727 474.525C768.029 479.904 769.456 481.352 771.076 484.804Z" fill="#FDDDB6"/>
<path fill-rule="evenodd" clip-rule="evenodd" d="M805.745 529.445C805.745 529.445 795.211 538.976 794.219 546.252L791.129 553.799L802.398 541.636L811.754 530.059L816.093 515.514L806.194 506.347L802.019 498.657C791.322 514.915 809.263 525.8 805.745 529.445Z" fill="#221E54"/>
<path fill-rule="evenodd" clip-rule="evenodd" d="M796.448 557.751C796.384 558.386 796.006 561.724 792.266 562.074C789.369 562.345 788.598 561.874 788.084 561.318C787.499 560.683 785.958 561.796 785.444 562.216C784.245 563.208 781.133 561.724 781.133 561.724C781.133 561.724 780.919 559.256 783.538 557.273C786.15 555.297 791.867 553.007 791.91 552.972C798.532 547.486 801.987 537.585 807.774 534.018C807.146 531.122 806.932 528.39 806.882 524.823L817.98 522.483C818.644 526.05 817.466 532.106 818.13 536.094C812.506 544.419 801.137 549.669 796.448 557.751Z" fill="#FDDDB6"/>
<path fill-rule="evenodd" clip-rule="evenodd" d="M806.48 526.599C805.253 520.094 800.393 514.843 799.879 511.426C800.136 479.376 818.434 504.193 820.333 524.174C815.708 524.98 811.091 525.786 806.48 526.599Z" fill="#3D3584"/>
<path fill-rule="evenodd" clip-rule="evenodd" d="M764.554 572.624C764.554 572.624 760.822 570.891 758.916 571.818C757.011 572.746 755.676 575.449 755.676 575.449C755.676 575.449 757.525 576.89 747.498 581.712C747.498 581.712 742.823 581.99 742.16 589.959C742.16 589.959 740.739 593.896 743.744 596.386C743.744 596.386 745.499 597.377 748.126 595.694C748.126 595.694 752.465 590.486 759.073 589.138C759.073 589.138 762.663 588.011 766.117 584.33C766.117 584.33 768.016 581.641 767.124 580.607C766.246 579.572 764.554 572.624 764.554 572.624Z" fill="#1A1840"/>
<path fill-rule="evenodd" clip-rule="evenodd" d="M768.791 570.484C768.791 570.484 785.676 563.779 796.36 558.4C796.36 558.4 816.057 551.766 823.7 557.152C823.7 557.152 829.545 559.563 825.956 565.99C825.956 565.99 821.417 575.421 805.452 576.369C805.452 576.369 783.649 579.23 774.886 582.283L767.406 583.981C767.406 583.981 761.569 576.854 763.01 572.817L768.791 570.484Z" fill="#FFA000"/>
<path fill-rule="evenodd" clip-rule="evenodd" d="M761.555 478.776C761.555 478.776 765.43 478.306 767.392 476.394C767.392 476.394 765.537 476.651 763.232 474.468C770.19 475.645 772.98 457.554 788.296 464.445C788.331 463.575 788.174 462.398 787.632 461.656C789.288 462.84 790.708 464.231 791.179 465.658L793.092 463.675L793.177 467.106C799.336 469.153 796.003 479.575 794.876 483.449C795.026 486.459 793.662 488.371 792.706 489.926L792.392 486.609C794.176 484.662 795.275 478.163 791.386 480.802C791.322 483.213 791.422 483.085 790.958 485.518H790.43C790.401 484.105 789.944 482.928 789.58 481.979C789.088 481.844 787.004 480.474 787.225 477.564C783.814 479.169 765.722 485.218 761.555 478.776Z" fill="#221E54"/>
<path fill-rule="evenodd" clip-rule="evenodd" d="M801.072 559.534L794.014 563.479L748.539 561.111L755.454 557.573L801.072 559.534Z" fill="#8AC6F4"/>
<path fill-rule="evenodd" clip-rule="evenodd" d="M801.071 559.534L794.027 563.251L793.898 565.733L800.507 561.303C800.871 561.061 801.071 560.683 801.071 560.241V559.534Z" fill="#C5E0FB"/>
<path fill-rule="evenodd" clip-rule="evenodd" d="M748.543 560.883L794.025 563.251L793.897 565.733L749.692 563.429C748.993 563.394 748.45 562.794 748.486 562.088L748.543 560.883Z" fill="white"/>
<path fill-rule="evenodd" clip-rule="evenodd" d="M785.189 531.899L795.416 562.694L794.01 563.479L781.992 530.087L782.991 530.152C784.033 530.216 784.861 530.908 785.189 531.899Z" fill="#C5E0FB"/>
<path fill-rule="evenodd" clip-rule="evenodd" d="M741.071 528.347L782.363 530.102C782.998 530.13 783.527 530.53 783.726 531.136L794.339 563.501L748.371 561.111L739.565 530.266C739.429 529.795 739.522 529.31 739.829 528.925C740.136 528.525 740.578 528.325 741.071 528.347Z" fill="#8AC6F4"/>
<path fill-rule="evenodd" clip-rule="evenodd" d="M741.062 528.575L782.355 530.33C782.897 530.351 783.347 530.694 783.511 531.207L794.023 563.258L748.542 560.89L739.778 530.201C739.663 529.795 739.742 529.395 739.999 529.06C740.263 528.725 740.634 528.554 741.062 528.575Z" fill="white"/>
</svg>
